<?xml version="1.0" encoding="UTF-8"?>
<svg id="_레이어_1" data-name="레이어 1" xmlns="http://www.w3.org/2000/svg" viewBox="0 0 399.34 668.54">
  <defs>
    <style>
      .cls-1 {
        fill: #3e588c;
      }
    </style>
  </defs>
  <path class="cls-1" d="M169.69,509.77l8.08-6.65-2.38-8.32-7.92-5.46-.86-1.64v-5.87l-3.86-.83-1.56-1.75-1.64-17.25-.71-.28.26-.65-6.67-6.79-11.28.66-7.98,4.2-1.08.22-12.9-1.03-1.28-.61-2.33-2.44-2.89,1.03-2.66-1.87v-1.95l-6.89,3.7h-1.87s-4.98-2.63-4.98-2.63l-1.06-1.69-.44-12.9.19-.93,2.25-4.71-2.49-.83-5.49,9.32-1.93.97-3.96-.44-1.66-1.32-2.74-7.84-5.56.23-1.93-1.25-1.06-2.64-6.37,2.19-.76,8.54-.71,1.35-12.9,10.7-1.46.45-9.14-.91-5.13-1.03-1.59-2.12.67-7.75c-2.03-2.75-4.74-6.42-6.65-9.07l-6.99,15.38-9.89,10.99,17.37,21.33-4.4,7.04-5.5-7.7-3.19,2.2,1.65,5.5-6.27,8.36,2.09,6.38,5.17-2.2,1.43,3.41-4.4,9.13,1.65,8.25-5.17,7.15,2.64,5.28,19.24,3.85-.33,5.83h-4.62l-12.09-7.92-1.32,2.2,3.96,8.58-1.43,3.74-3.74-2.42-2.86-16.16-7.7-.88v18.14l4.62,7.48,8.91,2.42,7.04,14.4v5.72l-.33,14.07h12.75l3.52-12.86,11.43-2.53,4.84-5.39,1.21-15.83,2.86-.22.33,23.53,17.37-3.08,5.28-6.82.33-10.55,3.63-5.72,35.18-15.72,5.28,3.3-3.85,11.76-4.62-8.8-5.94.33-2.31,9.89-3.19,4.07-8.03-.66-3.63,12.31,15.06-2.53,3.52,5.17,1.65,14.18,15.94-12.64,1.87-10.44,3.19,2.2,8.03-1.87-.33-8.8-10.33-5.94.88-16.82,10-5.39,7.37,6.05-2.31,23.09,10.55,3.52-1.43-8.69,5.72-3.74,11.87,2.64.44-2.75-3.19-3.74,2.64-9.78-1.32-5.39-16.27.22-1.65-5.83,11.59-4.51,1.16-5.7.69-1.14Z"/>
  <path class="cls-1" d="M37.05,440.52l-.58,6.73,3.29.66,8.02.79,11.62-9.64.81-9,1.33-1.7,9.38-3.23,2.49,1.14,1.24,3.09,5.63-.23,1.96,1.33,2.81,8.05,1.43.16,5.65-9.59,2.34-.88,6.16,2.05,1.16,2.74-3.01,6.3.38,11.26,3.03,1.6,8.89-4.78,2.93,1.75v2.46l1.45-.52,2.11.5,2.7,2.82,11.57.92,7.85-4.13.81-.23,12.61-.73,1.53.59,6.06,6.17,6.35-16.17-1.83-4.25-1.72-6.89-3.6-4.34-.3-2.05,10.41-24.33.34-.54,12.02-13.49,2.14-.55,4.72,1.65,9.42-8.95,1.35-9.08-2.54-6.92-12,.78-1.62-.67-5.37-6.1-2.1,1.23-1,.27h-2.42l-1.6.36,1.83,6.5-3.44,1.81-5.21-6.25-1.72.13-2.32,5.61-2.25,1.18-8.21-1.76-1.57-1.94v-2.72l-1.38-.88-3.41,1.59-2.83-1.8v-8.56l-5.35-5.35c-5.75,5.63-6.58,5.63-7.32,5.63-.89,0-15.16-1.13-19.51-1.47l-1.74-1.38-3.33-10.5-16.68,1.49-2.56,9.23-.97,1.22-16.85,9.08-1.37-2.53-15.86,1.16-5.5,3.3.66,2.86h5.72l4.84,7.26,7.92,2.86,13.85-3.74-.44,3.74-12.53,3.08v2.64l7.48,5.5-.66,4.62-6.6-4.18h-6.6l-9.89,11.21-11.65,5.72v8.8l19.13,1.1,1.98,3.08-4.18,2.86h-8.36l-15.38,11.68c1.77,2.46,4.79,6.59,7.59,10.37l.38,1.35Z"/>
  <polygon class="cls-1" points="177.87 350.83 180.36 351.23 186.16 357.83 197.36 357.1 197.57 356.47 204.54 358.87 209.04 351.49 211.6 340.58 212.91 339.15 218.8 337.19 218.8 329.96 212.98 330.91 212.04 330.84 199.89 326.88 198.52 324.99 198.52 320.59 198.75 319.66 203.59 310.5 201.73 287.49 195.32 282.09 195.12 279.25 199.02 274.85 201.29 274.35 208.11 277.27 211.01 273.71 207.12 268.58 207.33 265.93 211.51 261.98 212.88 261.43 224.31 261.43 225.62 261.92 228.14 264.13 228.39 262.34 225.5 257.91 225.64 255.55 228.94 251.59 231.79 251.38 232.66 252.16 232.66 249.79 233.28 248.34 237.46 244.39 239.98 244.21 246.11 248.59 247.39 246.92 247.39 242.75 250.84 241.41 262.12 253.67 266.17 250.43 268.52 250.34 270.35 251.57 272.05 247.05 269.55 242.11 269.46 240.49 272.37 233.02 273.98 231.76 280.19 230.99 286.28 223.07 287.3 222.37 296.29 219.74 295.65 219.21 283.39 214.64 273.05 215.38 271.28 214.54 266.8 208.2 259.13 210.26 257.05 209.56 255.07 207.04 255.82 204 263.99 200.34 263.99 199.77 253.53 197.87 252.62 197.45 249.33 194.73 239.33 201.01 238.14 201.31 233.09 200.98 231.3 199.53 230.18 195.51 226.42 190.07 220.71 192.21 222.61 196.55 222.63 198.1 220.87 202.39 218.69 203.59 210.66 202.18 200.38 201.53 199.27 201.1 195.2 197.86 191.15 203.17 189.57 203.95 184.1 203.95 184.1 208.01 183.39 209.53 175.89 215.8 174.38 216.25 169.76 215.7 168.96 215.42 165.81 213.5 157.57 222 157.05 222.39 149.32 226.34 143.07 232.8 158.17 252.84 158.57 254.04 158.57 258.14 155.75 259.95 148.26 256.45 141.19 263.99 148.08 291.58 153.9 296 158.38 293.89 161.15 295.17 162.95 301.89 166.55 301.89 168.54 303.88 168.54 308.57 167.38 310.38 163.11 312.33 160.51 322.51 162.42 325.05 166.55 325.05 168.5 326.61 174.3 352.61 174.81 352.61 177.87 350.83"/>
  <path class="cls-1" d="M137.17,40.31l2.83.5,1.61,1.6,1.21,6.65,5.58,5.66,2.89-3.63,2.89-.24,3.3,2.97.62,1.88-1.37,6.57,1.36.86,7.59-2.37,1.61.19,6.05,3.63.95,1.44.87,6.41,15.36,11.16.82,1.61v11.32l-.99,1.72-8.81,5.15-.1,7.78-.36,1.11-3.45,4.96,2.51,3.24.41,1.36-.72,10.05,8.4-.52,1.61.66,7.7,8.62,11.38.61,1.2.48,4.18,3.63.3,2.67-2.64,3.63-1.39.81-6.01.66,3.01,5.29.11,1.75-8.55,20.35-.53,9.33-.1.52-1.32,3.96,4.09,3.25,9.98.65,6.56,1.15.83-2.03-2.41-5.49,1.12-2.66,9.13-3.41,2.33.73,4.84,6.98.28.6.83,2.98,3.01.2,10.67-6.69,2.32.15,4,3.3,11.58,2.11,1.63,1.96v3.52l-1.18,1.82-3.57,1.6,3.9-1.05,2.14.77,4.63,6.56,9.66-.69.84.12,12.97,4.84.57.33,3,2.46.83-.24.35,1.21,4.36,3.58,3.35-.55-.29-3.56,1.53-2.1,8.03-1.87,1.94.62,5.18,5.86,2.58-3.07,1.44-.71,5.28-.22,1.32.43,4.97,3.95,6.14-2.91,1.76.03,11.68,6.02,8.98-10.56,1.19-.67,8.34-1.36-1.09-8.99-17.04-41.23-50.57-84.88L281.48,0c-.66,0-6.82,3.3-6.82,3.3l-6.82,22.87-15.61,12.53h-13.41l-10.55-4.4-4.84,1.98-10.55-.44-11.43-2.64-5.72,2.2h-13.61l-10.13-.66-5.72-1.98-15.83,2.42-5.06-5.5-6.78,4.43.17.04-1.59,6.15Z"/>
  <path class="cls-1" d="M83.43,335.89l1.74-1.45,19.64-1.76,2.07,1.38,3.41,10.74c6.56.52,15.32,1.2,17.44,1.33,1.07-.77,3.99-3.5,6.34-5.85h2.81l7.33,7.33.58,1.41v6.26l1.57-.73,1.91.12,3.22,2.05.92,1.68v2.2l5.02,1.07,2.15-5.21,1.69-1.22,3.96-.29,1.6.68-.14-.5,1.91-2.53h1.62l-5.27-23.58h-3.54l-1.59-.79-3.08-4.1-.34-1.69,3.08-12.02,1.1-1.32,3.97-1.81v-1.43h-3.14l-1.92-1.47-1.58-5.9-3.42,1.61-2.05-.22-7.33-5.57-.73-1.1-7.33-29.32.48-1.84,8.8-9.38,2.29-.44,5.97,2.78v-.32l-15.61-20.72-12.25-11.16-27.39,7.48-7.85,8.27-4.18-16.49-18.69-12.75-4.4-4.4-12.97.22,2.42,8.36-2.42,3.74-6.38-10.55-12.31,7.48,10.33,7.7-.22,6.16-5.28,6.6-4.84-2.2-1.32-16.05-10.11,7.48-14.07,18.03,1.54,4.18,5.28-2.2,1.32,3.74.22,4.62,4.62-.88,3.52,15.39h3.08l2.42-7.92,3.96,7.92,6.82-1.1,4.18-7.04,2.86,4.18-.88,33.2,6.6,4.4v4.62h-5.94l1.1,18.91-6.16,5.5,1.1,4.18h7.92l15.48,19.96,14.64-7.89,2.71-9.74Z"/>
  <polygon class="cls-1" points="365.8 428.13 363.77 428.96 354.97 427.2 353.37 425.25 353.37 415.65 338.23 416.63 332.62 424.1 331.44 424.85 298.61 431.89 297.66 431.86 287.7 429.1 280.66 431.53 278.32 430.69 270.99 418.65 254.68 425.34 253.3 425.38 229.26 417.47 227.94 416.03 227.06 412.22 227.93 410.09 232.91 406.93 226.86 394.13 224.02 394.13 222.31 393.16 220.27 389.75 210.88 390.01 209.44 389.45 200.5 380.81 191.09 389.75 189.06 390.19 184.45 388.58 173.53 400.83 163.73 423.75 166.84 427.5 167.24 428.29 169.03 435.46 171.01 440 171.04 441.52 163.45 460.87 165.02 477.42 169.03 478.28 170.59 480.23 170.59 486.66 178.24 491.93 179.02 493.02 181.95 503.28 181.3 505.36 172.76 512.39 171.59 518.17 178.03 522.33 180.66 516.95 195.51 509.36 203.53 511.89 210.35 500.13 213.65 502.76 210.57 511.56 212.88 521.56 235.31 523.65 241.02 518.71 244.32 520.9 238.05 525.96 242.23 529.92 247.84 526.73 249.38 529.37 241.46 537.73 242.67 540.03 246.63 540.36 249.27 548.28 257.07 544.54 254.54 535.09 258.5 524.42 255.09 524.75 254.65 516.51 262.46 509.03 262.46 505.95 260.92 500.78 270.93 497.49 272.47 504.74 278.95 500.67 275.21 487.92 277.08 487.48 280.71 493.64 286.98 493.75 286.32 500.89 297.31 502.32 304.57 505.62 316.66 500.35 321.61 510.24 336.45 499.58 350.63 487.48 355.03 474.29 364.93 466.59 364.93 456.81 372.07 449.77 376.58 452.3 380.84 429.05 369.21 423.13 365.8 428.13"/>
  <polygon class="cls-1" points="386.48 414.48 399.34 368.63 397.36 365.34 384.5 378.09 375.37 370.72 375.48 366.22 378.23 361.49 378.45 328.62 388.45 308.61 388.67 304.98 386.48 298.6 390.87 275.73 389.33 234.62 380.73 216.16 372.89 217.44 363.36 228.65 360.94 229.13 348.73 222.83 342.36 225.86 340.27 225.62 334.91 221.35 331.25 221.5 327.75 225.67 324.74 225.71 318.82 219.01 313.62 220.22 313.92 223.9 312.26 226.02 306.21 227.01 304.63 226.59 300.01 222.8 289.04 226.01 282.84 234.07 281.51 234.83 275.65 235.56 273.49 241.1 276 246.03 276.08 247.63 273.18 255.33 270.21 256.27 267.51 254.45 263.15 257.94 260.45 257.73 251.3 247.78 250.96 248.8 248.1 252.53 245.36 252.94 239 248.4 236.63 250.64 236.63 256.6 233.32 258.09 230.68 255.72 229.64 256.97 232.13 260.8 232.44 262.16 231.56 268.32 228.28 269.53 223.56 265.41 213.67 265.41 211.36 267.6 215.12 272.55 215.08 275.01 210.24 280.95 207.91 281.52 201.04 278.57 199.45 280.37 204.92 284.99 205.62 286.35 207.6 310.75 207.38 311.84 202.5 321.08 202.5 323.54 212.81 326.91 220.47 325.66 222.78 327.63 222.78 338.62 221.42 340.51 215.22 342.57 212.83 352.71 212.6 353.29 207.1 362.3 204.75 363.15 202.11 362.24 203.9 367.11 204 368.08 202.62 377.33 211.61 386.01 221.32 385.74 223.09 386.71 225.15 390.16 228.12 390.16 229.92 391.3 237.25 406.81 236.52 409.34 231.26 412.69 231.57 414.04 253.85 421.38 271.05 414.33 273.5 415.13 280.88 427.25 286.99 425.13 288.17 425.1 298.25 427.9 329.88 421.12 335.59 413.51 337.06 412.72 355.23 411.54 357.35 413.53 357.35 423.62 363.26 424.81 366.91 419.44 369.46 418.79 381.59 424.97 382.08 422.29 386.48 414.48"/>
  <polygon class="cls-1" points="128.61 219.15 140.37 229.87 146.69 223.34 147.22 222.95 154.95 219 164.06 209.59 166.53 209.28 170.66 211.8 174 212.2 180.12 207.08 180.12 201.96 182.11 199.97 188.58 199.97 192.09 195.38 192.05 195.35 193.07 194.07 194.64 189.38 195.17 179.97 195.32 179.31 203.63 159.55 199.61 152.48 201.12 149.52 209.26 148.63 210.31 147.19 208.02 145.2 196.5 144.58 195.12 143.92 187.52 135.4 177.82 136 175.71 133.88 176.54 122.32 173.6 118.53 173.54 116.17 177.47 110.52 177.58 102.22 178.56 100.53 187.36 95.39 187.36 86.22 172.13 75.16 171.33 73.82 170.47 67.51 166 64.83 158.39 67.2 156.73 66.99 153.43 64.9 152.55 62.81 153.97 56.01 153.09 55.22 150.12 58.96 147.15 59.11 139.56 51.42 139.02 50.38 137.95 44.48 134.36 43.85 132.78 41.39 133.94 36.92 122.28 40.46 120.31 48.59 114.59 48.59 110.85 40.9 105.79 45.63 101.29 46.73 94.69 52.55 94.14 60.8 99.42 63.88 103.26 60.91 109.86 68.27 107.44 73.33 102.39 70.36 97.44 75.86 102.83 80.92 98.21 88.5 94.14 83.89 92.71 74.98 79.85 81.58 89.85 89.93 89.19 94.66 83.04 96.09 86.11 109.28 83.7 118.08 81.06 117.42 81.17 110.93 74.46 102.8 63.36 112.47 72.04 152.05 82.27 160.08 82.6 168.43 85.67 172.61 64.13 173.82 62.26 183.71 69.29 184.15 74.9 196.25 80.07 196.25 84.79 191.3 89.74 192.51 83.48 199.87 85.56 215.27 96.69 226.91 126.75 218.7 128.61 219.15"/>
  <polygon class="cls-1" points="45.55 632.69 25.1 636.69 10.33 644.71 2.11 655.89 0 668.54 10.76 668.54 14.55 663.48 34.38 655.25 45.55 653.78 49.98 640.49 45.55 632.69"/>
</svg>