<?xml version="1.0"?>
<svg width="1492" height="2393" xmlns="http://www.w3.org/2000/svg" xmlns:svg="http://www.w3.org/2000/svg" xml:space="preserve">
 <g class="layer">
  <title>Layer 1</title>
  <g id="svg_1" transform="translate(-1427 1)">
   <path d="m2038.67,712.5l0.47,12.31l0.57,6.5l-0.48,1.1l-0.07,5.33l2.63,1.21l4.58,-1.93l1.95,1.18l0.61,1.32l-0.19,3.86l1.74,1.17l-1.26,2.74l0.68,1.17l1.51,3.56l2.29,2.84l0,2.84l4.56,2.84l4.56,0l2.27,-2.84l2.29,-2.84l2.27,-2.84l2.28,0l2.28,2.84l-2.28,2.84l-1.69,2.1l0,0l-0.59,0.74l0,5.67l4.56,2.84l2.27,2.83l6.85,0l9.12,-2.83l2.27,2.83l2.28,0l2.28,0l2.28,0l2.28,5.68l0,11.36l2.28,5.66l4.56,5.68l4.56,0l4.56,0l2.27,5.68l4.56,2.84l4.56,0l4.56,5.68l-2.28,11.34l-2.28,2.84l-4.56,2.84l-9.12,5.67l0,2.85l0,5.67l0,2.83l2.29,2.84l0,5.68l-6.84,5.67l2.28,2.84l6.83,0l0,5.68l-2.27,2.84l-2.29,5.67l0,2.83l4.56,2.85l4.56,0l6.84,0l4.56,2.83l4.55,2.84l11.41,5.68l6.83,0l4.56,2.84l4.56,0l2.28,2.84l2.28,2.83l-2.28,5.67l-2.28,0l-4.56,5.68l-2.27,5.68l0,2.84l0,5.68l-13.68,25.53l-6.85,22.7l-11.39,19.86l-2.28,2.84l-2.28,2.84l-2.27,0l0,2.84l-2.29,2.84l-9.11,17.02l-4.56,2.84l0,-2.84l-4.56,0l-2.28,2.84l-2.28,5.68l-2.28,2.84l-4.55,0l-4.56,5.67l0,5.67l-6.85,2.84l-9.11,2.84l-9.11,2.84l-9.12,0l-6.84,-5.68l-9.12,-5.68l-15.95,8.52l-6.84,0l-9.12,-2.84l2.28,-2.84l2.28,0l2.28,-2.84l2.28,-5.66l-2.28,0l0,-2.84l0,-2.84l2.28,0l2.28,0l2.28,0l0,-2.85l2.28,-2.83l-11.4,5.68l-2.28,0l0,8.51l-2.28,2.83l-4.56,0l-4.55,0l-9.12,-5.66l-6.85,-5.68l-2.27,-5.68l11.39,-2.84l-2.27,-2.84l2.27,0l2.29,0l2.27,0l0,-2.83l-2.27,-2.85l-2.29,-5.66l2.29,-5.68l-2.29,-2.84l-2.27,2.84l-2.29,2.84l0,5.68l0,2.82l-2.27,2.85l-2.29,-2.85l-2.27,0l-4.56,2.85l-9.12,-2.85l0,-2.82l0,-2.84l0,-2.84l0,-5.68l2.29,-2.84l2.27,-2.84l2.29,-2.83l4.54,0l4.56,0l4.56,-2.84l2.29,-2.84l0,-2.83l-2.29,0l-2.27,0l-4.56,2.83l-2.29,0l-2.27,-2.83l0,-2.84l-4.56,2.84l-4.56,2.83l-6.83,5.68l0,2.83l-2.29,0l-2.27,0l-2.28,0l0,-2.83l2.28,-2.84l2.27,-2.84l-6.83,0l-2.28,-2.83l2.28,-2.84l2.28,-2.84l2.28,0l2.27,0l2.29,-2.84l0,-2.83l-6.84,2.83l0,-2.83l-2.28,-2.85l-2.28,-2.83l0,-2.84l2.28,-2.84l2.28,2.84l2.28,0l2.27,-2.84l4.56,2.84l2.29,0l2.27,2.84l2.29,-2.84l0,2.84l0,2.83l2.27,2.85l2.29,0l2.27,-2.85l0,-5.67l4.56,-5.68l2.27,2.84l2.29,0l4.56,0l0,-2.84l-2.29,0l-2.27,-2.83l-4.56,0l-2.29,-2.84l-2.27,2.84l-2.27,0l-4.56,-2.84l-6.85,0l-9.11,-8.51l0,-2.84l4.55,-5.68l2.29,0l0,-2.84l-2.85,0l2.04,-6.77l0.64,-2.37l1.01,-0.9l1.17,-0.45l0.57,-1.27l-0.21,-1.22l-0.48,-1l-0.06,-1.31l1.26,-1.62l-0.24,-2.32l-0.82,-1.26l-1.1,-0.07l-2.44,-1.44l-2.59,-2.59l-0.14,-2.33l-0.8,-3.47l-0.05,-1.29l1.1,-4.11l3.65,-7.82l0.42,1.28l2.56,1.63l1.03,1.17l4.86,3.78l1.22,2.21l-0.33,2.42l1.16,0.98l-0.75,4.16l3.08,2.87l5.62,-2.95l5.96,10.92l4.5,-1.4l2.45,0.85l2.38,-0.7l3.46,-0.18l1,-1.02l5.7,-3.48l3.67,-0.05l2.32,-0.84l0.27,3.37l1.71,3.14l1.14,0.66l3.64,-2.32l3.05,-4.05l2.3,-0.5l2.38,0.13l3.06,-3.27l-0.97,-1.04l0.75,-1.22l1.25,0.26l1.17,-0.97l2.26,-3.49l-0.09,-1.17l-2.97,-0.48l-0.43,-1.73l1.11,-2.4l0.27,-1.18l5.17,-3.45l0.78,-1.08l-3.38,-6.83l-4.46,2.69l-4.65,2.05l-2.3,0.44l1.13,-11.74l-2.44,-3.25l0.04,-1.61l-2.42,-4.18l-0.4,-3.81l0,-3.83l-2.5,-3.25l-4.92,0.58l-3.74,-0.01l-3.9,-0.41l-0.85,0.66l-0.37,1.06l-3.4,2.25l0.08,0.77l0.16,1.55l-1.81,2.86l1.07,3.03l-1.94,3.41l-4.65,-6.47l-1.39,0.18l-2.8,3.02l-2.46,0.52l-0.92,5.45l-0.38,1.18l0.05,2.52l0.13,3.57l-3.58,1.87l-2.25,1.68l-1.5,0.5l-0.74,0.26l-2.4,-0.92l-2.52,-1.1l-4.25,-3.88l-1.28,0.14l-0.98,2.88l-0.01,0l-2.69,-0.53l-3.69,1.59l-1,-2.49l-4.25,-0.34l-3.13,-3.22l-4.23,-3.65l-6.27,-2.54l-2.59,2.41l0,4.03l-4.68,0l0,2.59l-2.27,-2.85l0,-2.83l0,-5.67l-2.29,-8.52l-2.27,-19.86l0,-2.84l2.27,0l11.4,2.84l4.56,0l2.28,0l2.28,-2.84l2.28,2.84l2.28,2.83l0,5.68l0,2.84l-2.28,2.84l0,5.67l6.84,5.68l6.83,2.84l4.56,0l-4.56,-2.84l-9.11,-8.52l2.28,-8.51l0,-5.68l0,-2.83l-2.28,-2.84l0,-2.83l0,-2.85l0,-5.67l0.51,-0.64l-3.75,2.25c0.2,-0.55 0.56,-1.59 1,-2.87l0.99,-2.86l1.25,-1.56l0,0l-1.25,1.56l0.5,-1.46c1.05,-3.04 2.09,-6.08 2.49,-7.19c0.12,-1.23 0.23,-2.47 0.35,-3.7l-0.2,-5.64l0.99,-3.14l-2.41,-8.12l0.57,-1.68l2.07,-0.31l1.87,0.61l3.19,-1.11l3.57,-1.62l2.52,-0.3l3.13,0.31l1.37,-0.26l0.8,-0.68l2.12,-3.23l2.55,-3.02l6.34,-6.11l2.36,-2.74l1.52,-2.53l0.69,-1.45l1.07,-5.04l1.01,-3.25l1.35,-2.23l2.09,-2.13l5.03,-3.39l3.74,-3.26l5.56,-2.86l0.36,-0.89l-1.97,-3.82l0.9,-5.39l1.9,-3.76l0.24,-0.26l0.48,0.75l5.64,-6.33l0.93,-2.39l5.52,-4.21l2.48,-1.26l3.55,-3.31l3.07,-1.36l1.75,-2.25l7.7,-4.85z" fill="#FEFEE9" fill-rule="evenodd" id="svg_2" stroke="#646464" stroke-miterlimit="8" stroke-width="1.02" transform="matrix(1 0 0 1 0 0)">제주</path>
   <path d="m2281.28,640.5l4.52,7.48l9.13,17.05l0,8.53l4.55,11.36l18.26,31.24l13.7,36.94l2.28,2.84l6.85,8.52l2.28,8.52l31.95,45.46l13.7,17.04l13.68,17.04l2.29,2.85l11.41,11.36l0,2.85l0,8.52l2.29,2.84l6.84,5.68l2.29,2.84l4.55,19.88l2.29,2.84l2.28,2.84l4.56,2.85l9.13,17.05l4.57,5.68l2.29,2.84l0,5.68l2.27,2.84l9.13,11.36l2.28,8.52l2.29,17.05l4.56,11.36l-5.49,-0.21l-0.01,0.01l-0.51,-0.02l-6.57,6.94l-6.32,0.34l-10.38,9.38l0.23,9.2l-9.24,-0.07l-6.84,-2.83l-6.84,-2.84l-0.2,0.12l-0.32,-0.13l-4.57,2.84l-4.4,2.74l-8.77,-2.73l-6.84,-2.84l-0.13,0.15l-0.39,-0.16l-2.03,2.52l-2.02,-2.51l-0.51,0l-0.01,-0.01l-1.76,0l-2.28,-2.83l-0.26,0.32l-0.26,-0.33l-4.57,5.68l-6.32,2.62l0,-5.45l0,-2.84l-2.29,-2.84l-0.51,0l-0.01,-0.01l-4.05,0l-2.27,-5.67l-0.52,0l0,-0.01l-4.57,0l-6.84,2.84l-2.29,2.84l0,5.68l0,5.68l-2.28,5.68l-4.56,0l-4.06,0l-4.55,-2.83l-6.85,-2.84l-2.28,-2.84l-4.56,-2.84l-0.51,0l-0.02,-0.01l-4.56,0l-4.07,0l-6.82,-2.83l-4.56,-2.84l-0.51,0l-0.01,-0.01l-4.57,0l-4.56,0l-4.57,0l-1.76,0l-2.28,-2.83l-4.57,-2.84l2.29,-2.84l-2.29,-2.84l-0.51,0l-0.01,-0.01l-9.13,0l-6.84,2.84l-2.29,0l-2.28,0l-1.76,0l-2.28,-2.83l4.56,-5.69l4.57,-2.84l2.28,-5.68l-2.28,-2.84l-0.51,0l-0.01,-0.01l-10.93,0l-11.38,-2.84l-0.13,0.09l-0.39,-0.1l-4.56,2.85l-4.57,0l-4.55,0l-2.29,2.84l-6.84,2.84l-6.47,2.68l-2.14,-2.67l0,-5.68l-6.86,-8.53l-0.42,0.11l-0.1,-0.12l-11.41,2.84l-2.27,5.69l0,11.36l-4.57,2.85l0,2.84l-2.29,0l-1.75,0l0,-2.83l-0.52,0l0,-0.01l-6.86,0l-6.27,2.6l2.23,-11.12l-0.54,0.08l0.02,-0.09l-20.54,2.84l-19.91,5.51l11.3,-19.71l6.85,-22.72l13.7,-25.57l0,-5.68l0,-2.84l2.28,-5.68l4.56,-5.69l2.28,0l2.29,-5.68l-2.29,-2.84l-2.28,-2.84l-0.51,0l-0.01,-0.01l-4.06,0l-4.55,-2.83l-0.5,0l-0.02,-0.01l-6.34,0l-11.4,-5.67l-4.56,-2.84l-4.57,-2.84l-0.5,0l-0.02,-0.01l-6.84,0l-4.06,0l-4.55,-2.83l0,-2.84l2.29,-5.68l2.27,-2.84l0,-5.68l-0.52,0l0,-0.02l-6.33,0l-2.28,-2.83l6.86,-5.68l0,-5.69l-2.29,-2.84l0,-2.84l0,-5.68l0,-2.84l9.13,-5.68l4.56,-2.84l2.28,-2.84l2.29,-11.36l-4.57,-5.68l-0.51,0l-0.01,-0.01l-4.06,0l-4.55,-2.83l-2.27,-5.68l-0.52,0l-0.01,-0.01l-4.56,0l-4.05,0l-4.56,-5.68l-2.29,-5.68l0,-11.37l-2.27,-5.68l-0.52,0l-0.01,-0.01l-2.27,0l-2.29,0l-1.77,0l-2.28,-2.83l-0.41,0.13l-0.11,-0.14l-9.13,2.84l-6.33,0l-2.28,-2.83l-4.56,-2.84l0,-5.68l2.29,-2.84l0.62,-0.78l5.75,-3.24l0.09,-0.81l-4.82,2.72l1.65,-2.06l-2.28,-2.84l-2.29,0l-2.28,2.84l-2.27,2.84l-2.29,2.84l-4.57,0l-4.56,-2.84l0,-2.84l-2.28,-2.84l-1.53,-3.56l-0.68,-1.19l1.26,-2.74l-1.73,-1.16l0.2,-3.87l-0.62,-1.33l-1.96,-1.18l-4.58,1.94l-2.63,-1.21l0.06,-5.34l0.49,-1.1l-0.57,-6.5l-0.47,-12.13l2.32,0.81l2.39,0.2l7.69,-2.64l5.02,-3.15l1.16,-0.53l3.64,0.7l3.46,0.36l3.33,2.45l3.12,-0.85l3.52,0.58l2.36,-1.94l5.2,-0.32l3.04,-1.79l2.13,-0.42l6.21,1.87l3.55,2.51l2.31,-0.65l4.61,1.71l4.62,2.9l4.22,-2.66l11.4,-5.69l1.47,-0.39l3,0.63l2.41,2.29l7.86,-0.86l4.18,1.04l3.62,-0.9l1.8,-1.49l2.6,0.61l1.72,-0.31l7.7,0.26l3.7,-2.49l1.57,-0.39l0.43,0.25l-8.18,4.6l2.89,-0.86l4.28,-2.41l0.85,0.49l1.5,3.67l3.23,2.96l1.62,2.05l0.8,0.09l3.62,-1.99l3.74,-0.39l1.69,-0.95l1.73,-3.09l1.91,-0.53l8.57,2.46l1.56,0.91l1.98,0.32l3.7,-0.91l4.34,1.32l2.58,-0.17l2.2,0.34l2.75,1.24l1.53,0.19l6.15,-0.97l2.23,-1.19l3.95,-3.83l1.22,-0.45l4.25,0.65l2.8,-2.46l2.25,-1.48l2.48,-2.93l4.37,-2.97l3.11,-1.65l1.16,-1.7l2.04,-3.06l3.66,-2.38l7.8,-7.58l0.89,-1.95l3.07,-6.78l0.49,-0.71l-0.31,-1.98l1.8,-6.19c-0.05,-1.73 -0.1,-3.47 -0.15,-5.21l-0.81,-6.47l0,-4.3l13.08,-7.36z" fill="#FEFEE9" fill-rule="evenodd" id="svg_4" stroke="#646464" stroke-miterlimit="8" stroke-width="1.02" transform="matrix(1 0 0 1 0 0)">제주</path>
   <path d="m2190.15,1299.49l-6.83,8.57l-2.27,5.7l-9.11,5.72l-4.55,0l-2.28,0l-2.27,0l-4.55,8.57l-2.28,5.71l-4.55,2.86l-2.27,5.7l-2.28,8.57l-2.28,5.71l-2.28,5.71l-2.27,8.57l-2.28,5.71l-2.27,5.71l0,5.71l4.55,2.86l0,2.85l2.27,2.86l2.28,5.71l-2.28,5.71l2.28,5.71l4.56,2.86l-2.28,5.72l-9.11,11.41l0,5.71l0,5.71l-4.55,2.87l-2.27,5.7l4.55,5.71l2.27,5.71l0,14.28l4.55,5.71l4.56,2.86l4.55,2.86l0,5.71l2.28,5.7l13.65,14.29l2.27,5.71l0,2.86l0,2.84l2.28,0l2.27,2.86l2.28,0l0,-2.86l2.28,2.86l2.28,0l4.55,0l4.55,-5.7l2.27,-5.72l0,-8.57l2.28,2.86l2.27,2.86l2.28,5.71l4.55,-2.86l4.55,0l2.28,-2.85l-2.28,-8.57l4.56,0l2.27,-2.86l2.28,-5.7l4.55,-2.86l0,2.86l-2.28,2.84l0,2.86l-2.27,0l0,2.86l0,17.14l0,2.84l0,2.86l0,2.86l2.27,0l4.55,0l2.28,2.85l2.27,0l2.28,0l0,2.86l0,2.86l4.55,0l9.11,0l2.27,2.85l0,-5.71l2.28,-2.86l0,-2.85l2.27,-2.86l4.55,2.86l2.28,0l4.55,5.71l4.55,0l2.27,-5.71l2.29,-2.86l4.55,8.57l-4.55,2.86l-2.29,0l2.29,2.85l2.27,2.86l2.28,0l11.37,2.86l0,2.84l-2.27,0l-2.28,0l-2.27,2.86l6.82,0l4.55,0l4.55,-8.56l2.28,-2.86l-2.28,-5.71l0,2.86l-2.27,2.85l-2.28,0l0,-11.42l2.28,-5.72l-2.28,-2.84l0,-2.86l-2.27,0l0,-2.86l2.27,0l4.55,0l4.55,0l2.29,0l0,-5.71l0,-2.86l0,-2.85l0,-2.86l-4.56,0l-18.2,11.43l0,-2.86l0,-2.86l2.27,-2.85l0,-2.86l6.83,-2.86l6.82,-2.84l4.55,0l-2.27,-2.86l0,-2.86l2.27,0l4.56,-2.85l4.55,0l9.1,5.71l2.28,0l2.27,2.86l0,2.84l2.28,2.86l4.55,-2.86l2.28,0l-2.28,-2.84l-2.28,0l2.28,-2.86l-2.28,-2.86l-2.27,-2.85l-2.28,-2.86l0,-2.86l-2.27,-5.71l-2.28,-5.7l0,-2.86l2.28,-2.86l2.27,-2.86l2.28,0l2.27,5.72l-2.27,2.86l2.27,5.7l0,2.86l2.28,-2.86l4.56,2.86l2.27,2.85l2.28,2.86l0,-2.86l2.27,-2.85l2.28,0l0,11.42l2.27,-2.85l2.28,0l2.27,5.71l4.55,0l2.28,0l2.27,-5.71l0,2.85l0,2.86l6.84,0l1.7,0l0.29,-1.7l3.19,-1.2l-0.97,-3.97l-3.84,-1.16l-2.51,-3.5l-0.35,-2.03l2.88,-0.26l3.51,0.68l2.69,-2.04l2.5,-0.89l1.73,2.21l1.92,-1.24l0.4,-4.77l-1.69,-4.11l3.39,-2.97l3.14,-1.51l3.66,0.76l2.97,-2.54l2.24,0.57l4.76,-1.12l3.33,-1.32l3.16,-7.3l0.29,-2.08l4.94,-0.72l3.87,-4.62l2.63,0.97l2.57,-2.73l4.85,-0.98l0.03,-3.06l2.96,-2.89l1.15,-4.34l-0.68,-1.94l1.91,-1.69l5.65,2.58l2.07,-0.67l3.56,-7.06l0.01,0l2.82,1.35l5.13,-1.18l4.34,-0.25l2.12,3.47l-2.11,-3.48l-4.35,0.26l-5.13,1.18l-2.82,-1.36l2.69,-6.23l-2.06,-2.38l-0.22,-2.19l-1.37,-1.43l-2.73,1.51l-5.06,-1.57l-5.16,-4.37l-4.02,-7.85l-6.23,-2.36l-2.84,-2.37l-1.61,0.6l-9.12,-2.72l-0.04,-3.93l-2.26,0.04l-1.09,-3.91l3.87,-1.84l2.87,-2.63l-3.12,-7.66l-4.55,0l-6.84,-2.86l-6.82,0l-6.83,2.86l-2.27,2.86l-2.28,0l-4.55,2.85l-2.27,0l-6.84,5.71l-6.82,0l-6.83,-2.85l-4.55,-2.86l-9.1,0l-6.83,2.86l-4.55,-5.71l-4.55,-5.72l-2.28,-14.27l-4.55,5.7l-4.55,5.72l-6.83,0l-9.1,5.71l-6.83,-2.86l-4.55,-2.85l-4.55,-2.86l-6.83,0l-4.55,0l-11.38,0l-4.55,-11.42l2.28,-5.71l0,-5.71l-2.28,-2.86l-2.27,-2.86l-2.28,-2.84l0,-2.86l-4.56,-2.86l-2.27,-2.85l-4.55,-5.72l-4.55,0l-4.55,0l-6.83,-2.85l-2.27,0l-2.28,-2.86l-6.83,0l-2.28,0l0,-2.86l-2.27,0l0,-2.84l0,-2.86l-2.28,0l-4.55,-2.86l-2.27,-5.71z" fill="#FEFEE9" fill-rule="evenodd" id="svg_5" stroke="#646464" stroke-miterlimit="8" stroke-width="1.02" transform="matrix(1 0 0 1 0 0)">제주</path>
   <path d="m2222.97,1561.39l0,2.81l0,2.81l-2.34,2.81l0,2.81l0,5.62l0,2.8l-2.33,0l2.33,5.63l-2.33,2.81l-2.33,0l-2.34,0l-2.33,-2.81l-4.67,2.81l-2.33,0l-2.33,-5.62l-2.34,-8.43l-4.66,-2.81l-2.34,2.81l-2.33,2.81l0,5.62l0,2.81l-4.67,0l-2.33,-2.81l-2.33,0l0,-2.82l0,-2.8l0,-2.81l-7,-19.67l0,-2.81l0,-5.62l2.33,-2.81l2.33,-2.81l2.34,0l0,-5.62l2.33,0l2.33,-2.81l2.34,-2.8l4.66,2.8l2.34,0l0,5.63l0,2.8l0,2.81l-4.67,2.81l0,2.82l0,2.8l2.33,2.81l2.34,2.81l2.33,0l2.33,5.62l4.67,-2.81l4.67,0l4.66,-2.81l7,2.81l2.34,0" fill="#FEFEE9" fill-rule="evenodd" id="svg_6" stroke="#646464" stroke-miterlimit="8" stroke-width="1.02" transform="matrix(1 0 0 1 0 0)">제주</path>
   <path d="m2354.97,1546.99l0,2.81l-2.32,2.83l0,2.82l-4.64,0l2.32,2.82l2.32,5.65l0,2.82l-4.64,0l-4.63,-2.82l-2.32,0l0,2.82l-4.64,5.64l0,2.82l2.32,2.82l2.32,0l2.32,2.82l-2.32,2.83l-13.91,2.82l-4.64,0l6.96,-2.82l-4.64,-2.83l0,-2.82l0,-2.82l0,-2.82l-4.64,2.82l-2.31,0l0,-2.82l0,-2.83l0,-2.81l4.63,0l2.32,-2.82l0,-2.83l0,-5.64l-2.32,0l-2.32,2.82l-6.95,2.82l-2.32,2.83l-2.32,-5.65l-2.31,-2.82l-2.32,-2.82l0,-5.64l0,-2.82l2.32,0l4.63,-2.83l2.32,-2.82l6.95,0l2.32,0l2.32,0l2.32,2.82l2.32,0l4.63,2.83l0,-2.83l-4.63,-2.82l-2.32,-2.82l0,-5.65l0,-2.81l2.32,0l13.91,-8.47l-2.32,-2.82l2.32,-5.65l2.31,-2.81l2.32,2.81l2.32,2.83l-2.32,11.29l2.32,2.82l0,2.81l2.32,2.83l0,2.82l-2.32,2.82l-2.32,8.47l4.64,-2.82l2.32,0l0,2.82" fill="#FEFEE9" fill-rule="evenodd" id="svg_7" stroke="#646464" stroke-miterlimit="8" stroke-width="1.02" transform="matrix(1 0 0 1 0 0)"/>
   <path d="m2222.67,1553.49l0,3l2.3,0l-2.3,0l-9.2,0l-4.6,0l-2.3,0l-4.6,-3l0,-3l0,-3l2.3,-3l2.3,-6l2.3,0l2.3,-3l2.3,3l-2.3,6l0,3l0,3l2.3,-3l2.3,-6l2.3,0l0,3l2.3,0l0,3l0,6l2.3,0" fill="#FEFEE9" fill-rule="evenodd" id="svg_8" stroke="#646464" stroke-miterlimit="8" stroke-width="1.02" transform="matrix(1 0 0 1 0 0)">제주</path>
   <path d="m2265.97,1604.24l0,2.75l-2.34,2.75l-2.33,0l-2.33,0l-2.34,0l-2.33,0l0,2.75l0,-2.75l0,-2.75l-2.33,0l0,-2.75l0,-2.75l2.33,0l7,2.75l0,2.75l4.67,-2.75" fill="#FEFEE9" fill-rule="evenodd" id="svg_9" stroke="#646464" stroke-miterlimit="8" stroke-width="1.02" transform="matrix(1 0 0 1 0 0)">제주</path>
   <path d="m2283.63,1561.82l2.34,-2.67l2.33,0l2.33,0l2.34,2.67l0,2.67l0,2.66l-2.34,0l0,2.67l2.34,0l0,2.67l-2.34,0l-2.33,0l-2.33,0l0,-2.67l-2.34,0l0,-2.67l-2.33,0l-2.33,0l2.33,-2.66l0,-2.67l-2.33,0l-2.34,-2.67l-2.33,2.67l-2.33,0l0,-2.67l2.33,-2.66l2.33,0l2.34,2.66l2.33,0l2.33,2.67" fill="#FEFEE9" fill-rule="evenodd" id="svg_10" stroke="#646464" stroke-miterlimit="8" stroke-width="1.02" transform="matrix(1 0 0 1 0 0)">제주</path>
   <path d="m2254.17,1556.49l4.8,2.5l0,2.5l0,2.5l-2.41,0l-2.39,0l0,2.5l-2.4,-2.5l-2.4,0l-2.4,-2.5l2.4,-2.5l2.4,-2.5l2.4,0" fill="#FEFEE9" fill-rule="evenodd" id="svg_11" stroke="#646464" stroke-miterlimit="8" stroke-width="1.02" transform="matrix(1 0 0 1 0 0)">제주</path>
   <path d="m1895.59,1161.33l2.2,5.67l2.2,2.83l0,5.66l0,-2.82l-8.8,0l-2.2,0l-2.2,-2.84l2.2,0l0,-2.83l2.2,-2.84l-4.4,2.84l-2.2,0l0,-2.84l4.4,-5.67l-2.2,-2.83l-2.2,5.67l-2.2,-2.84l0,-5.67l0,-8.49l-2.2,-5.67l-2.2,-5.67l2.2,-2.83l4.4,-2.84l2.2,-2.83l2.2,5.67l2.2,0l-2.2,2.83l0,2.84l2.2,8.5l0,2.84l0,2.82l2.2,0l2.2,2.83l-4.4,0l0,2.84l2.2,0l2.2,0l0,2.83l0,2.84" fill="#FEFEE9" fill-rule="evenodd" id="svg_12" stroke="#646464" stroke-miterlimit="8" stroke-width="1.02" transform="matrix(1 0 0 1 0 0)">제주</path>
   <path d="m1914.2,1015.49l0,2.86l2.3,5.71l4.58,5.71l4.57,0l2.29,2.86l0,2.86l-2.29,0l-2.29,0l-2.28,-2.86l-2.29,-2.86l-2.29,-2.85l-2.3,0l0,2.85l11.45,14.29l2.29,2.86l2.29,2.85l0,2.86l0,2.86l-2.29,0l-2.29,-2.86l0,-2.86l-2.29,-2.85l-2.28,-2.86l-2.29,-2.86l-2.29,2.86l0,5.71l-4.58,11.43l0,5.72l-2.29,0l0,-2.86l-2.29,-2.86l0,-11.43l2.29,0l0,-2.85l0,-2.86l0,-2.86l-2.29,-2.85l-2.29,2.85l-2.28,2.86l-2.29,-5.71l2.29,-2.86l2.28,-2.86l0,-2.86l-4.57,-2.85l-6.87,0l0,2.85l0,2.86l-2.29,0l-2.29,-2.86l-2.28,0l-2.29,0l-2.29,2.86l4.58,0l2.28,0l2.29,2.86l-2.29,2.86l-2.28,0l-2.29,0l2.29,2.85l2.28,2.86l2.29,0l4.59,0l2.28,0l0,5.71l0,2.86l-2.28,5.72l-4.59,0l0,2.85l2.29,2.86l-2.29,0l-2.29,2.86l0,2.85l-2.28,0l-4.58,-5.71l0,2.86l0,5.71l4.58,8.57l-6.87,-2.86l-2.28,0l-2.3,2.86l-2.29,0l0,-2.86l0,-2.85l2.29,-2.86l2.3,0l0,-2.86l-2.3,-2.85l0,-2.86l2.3,-2.86l2.28,0l0,-2.85l-2.28,-5.72l0,-5.71l0,-5.72l0,-2.85l-4.59,0l-2.29,5.71l2.29,8.57l0,5.72l-2.29,2.85l-2.28,0l-4.58,0l-2.28,0l0,-2.85l0,-5.72l-4.58,2.86l-2.3,2.86l0,2.85l4.59,2.86l-4.59,5.71l0,2.86l4.59,2.86l4.57,0l-2.28,2.85l-2.29,0l-4.59,-2.85l2.3,5.71l-2.3,0l-2.28,2.86l0,-2.86l-2.29,-2.86l0,-2.85l-2.29,2.85l0,2.86l-4.57,5.72l-2.29,0l2.29,5.72l-2.29,8.56l2.29,0l2.28,0l0,-2.85l2.29,-8.58l0,-2.85l2.29,2.85l2.29,0l4.58,2.87l2.29,2.85l0,5.71l-2.29,0l-9.16,0l0,2.86l0,2.85l2.29,0l2.29,2.86l2.28,0l2.3,-2.86l4.58,0l4.57,-5.71l4.57,-2.85l2.29,5.71l-2.29,5.71l4.58,8.58l-2.29,5.72l0,2.84l2.29,0l0,2.86l2.3,-2.86l2.28,-2.84l4.58,0l-4.58,-2.87l0,-2.85l2.29,-2.86l0,-2.86l-4.57,-5.72l-2.3,-2.85l4.58,0l2.29,-2.86l0,-5.71l2.29,-2.85l2.29,0l2.28,2.85l0,5.71l2.29,0l-2.29,5.71l0,14.29l2.29,2.87l4.59,0l4.57,2.84l2.29,-2.84l0,-5.72l0,-5.72l2.28,-5.72l0,-2.85l-2.28,-2.86l0,-2.85l4.57,-2.86l2.29,-2.85l2.29,0l0,2.85l2.28,2.86l-4.57,0l0,2.85l0,5.71l4.57,0l2.3,2.86l-2.3,2.86l-2.28,2.86l2.28,2.86l2.3,0l2.29,2.85l-2.29,2.87l0,2.84l-4.58,0l-2.29,0l-2.29,2.86l2.29,5.71l0,2.87l-2.29,0l2.29,2.85l2.29,2.87l2.28,0l2.3,0l0,2.84l-4.58,5.73l0,2.84l0,5.73l2.28,2.86l2.3,2.85l2.29,0l4.57,-5.71l2.29,-2.86l11.45,0l-2.29,2.86l-9.16,0l-4.57,5.71l-2.29,2.86l-4.59,2.86l2.3,2.84l-2.3,0l0,2.87l2.3,2.85l2.29,2.86l2.29,0l4.57,0l4.58,0l0,2.86l0,2.86l-9.15,2.86l-4.58,2.85l4.58,0l6.86,2.86l2.29,2.85l-2.29,2.86l-2.29,5.72l-4.57,11.43l2.28,0l0,2.85l2.29,0l2.29,0l2.29,0l2.28,2.86l2.3,5.71l-9.16,-2.85l-4.57,2.85l-6.88,2.86l0,5.72l0,2.85l2.3,-2.85l0,-2.86l4.58,-2.86l4.57,2.86l0,2.86l2.29,0l4.57,0l4.59,8.57l2.28,0l2.29,2.85l2.29,0l-4.58,2.86l2.29,2.86l4.58,5.71l0,2.86l2.28,2.86l0,2.85l4.58,2.86l2.3,-2.86l4.57,0l4.58,-2.85l2.28,-2.86l4.58,-2.86l4.58,-2.86l9.15,-8.57l9.15,-2.85l11.45,-2.86l20.59,-5.71l6.86,2.85l-2.28,8.57l4.58,8.57l4.58,-2.85l6.86,0l9.16,-2.86l4.57,0l2.29,-2.86l4.57,0l2.29,-5.71l2.29,-2.86l0,-8.57l1.15,-2.14l0.57,-1.07l-2.42,-7.1l-3.43,-2.19l-1.99,-0.7l-2.91,-7.04l2.39,-2.35l-4.42,-2.26l-3.99,-2.71l5.05,-14.52l0.55,-5.73l0.7,-9.47l1.09,-3.74l-0.03,0.01l0.22,-0.28l0.28,-0.37l-0.01,0.01l-0.32,0.42l-0.21,0.26l0.02,0l-0.03,0.02l0.01,-0.02l-1.94,0.2l-0.74,0.32l-1.76,-0.74l-1.48,0.65l-0.03,1.14l-0.7,0.51l-0.64,0.38l-0.94,-1.2l-0.91,-0.87l-0.33,-0.82l-1.51,-0.16l-0.69,-0.76l-0.74,0.1l-0.38,-1.05l-1.29,-1.51l-2.85,-0.9l-0.89,-1.19l0.09,-1.1l-0.27,-1.13l0.29,-1.03l0.4,-1.87l-1.2,-1.05l-1.43,-1.95l0.05,-1.87l0.47,-1.31l-1.52,-1.34l-1.32,-0.06l-1.25,-0.48l0.3,-1.64l0.05,-0.67l-1.03,-1.01l-0.01,-1.18l1.47,-1.73l-0.37,-1.37l-1.1,-1.85l-0.02,-0.95l0.16,-0.99l0.93,-1.1l0.88,0.22l0.61,-0.21l0.6,-0.35l-0.63,-1.05l0.15,-0.71l0.36,-0.6l0.4,-1.68l0.7,-0.74l0.86,-0.12l0.61,-1.47l0.18,-0.64l0.68,-0.89l-0.34,-0.58l-1.47,-0.5l-1.17,0.25l-0.68,-1.68l-0.31,-1.71l-0.85,0.76l-0.9,-1.24l-1.09,0.11l-1.17,-1.3l-1.89,-1.18l-0.68,-2.33l-0.84,-0.9l0.1,-1l0.66,-0.46l0.73,-0.32l-0.56,-0.61l0.18,-1.51l-0.04,-0.64l-0.24,-0.85l-0.53,-1.01l-0.2,-1.37l0.28,-1.11l1.07,-1.12l-0.76,-1.53l0.08,-1.79l0.96,-1.44l0.11,-1.4l-0.15,-1.1l-0.46,-1.11l-0.22,-1l-1.22,0.6l-0.74,0.24l-0.76,0.14l-0.52,-0.1l-0.28,-1.31l-0.56,-1.45l-0.5,-0.92l-1.2,-0.66l-0.08,-0.98l1.1,-0.89l1.92,-1.23l0.7,-2.18l1.16,-1.52l0,-0.01l2.13,-0.16l1.01,0.39l1.01,0.85l0.97,-0.31l0.7,0.12l0.82,0.3l0.77,-0.16l1.43,0.46l0.59,1.08l0.94,1.08l1.06,-0.11l0.48,0.87l1.08,0.19l0.42,0.82l0.43,0.74l1.28,0.19l1.23,0.9l0.71,0.73l0.42,0.48l0.78,1.26l0.63,-0.33l0.78,0.63l1.08,0.47l1.58,-0.3l1.27,-0.07l0.51,0.47l0.58,0.16l0.77,0.06l1.3,0.76l1.7,0.46l1.41,0.87l-0.08,2.32l2.45,-3.07l2.29,-5.71l2.29,-2.85l2.3,0l2.28,0l0,-2.86l0,-2.85l2.29,-2.87l0,-2.85l0,-2.86l-2.29,-2.86l0,-5.71l-2.28,-2.86l-4.59,-5.71l-2.29,-2.86l-2.28,0l-2.29,-5.71l-9.16,0l-6.86,-5.72l-9.15,-5.71l-16.02,8.57l-6.86,0l-9.16,-2.86l-4.58,2.86l-9.16,2.86l-2.28,0l-4.58,2.85l2.29,2.86l6.86,8.57l-4.57,0l-4.58,0l2.29,5.71l0,2.86l-2.29,2.86l-2.29,5.71l-2.28,-2.85l-2.29,-2.86l4.57,0l0,-2.86l-2.28,-8.57l0,-2.86l-2.29,0l2.29,-2.85l0,-2.86l0,-2.86l0,-5.71l0,-2.86l-2.29,-2.86l-2.29,0l-4.58,5.72l-2.29,0l4.57,-11.43l0,-2.86l-4.57,-5.71l-4.57,-2.86l-4.58,0l-2.29,-2.86l-4.58,0l-2.29,0l-4.57,2.86l0,2.86l-2.29,2.86l0,8.57l-2.29,2.85l-2.29,0l2.29,-2.85l0,-2.86l-2.29,-2.86l0,-2.85l2.29,-5.72l-2.29,-2.86l-2.28,0l-4.59,-2.85l0,-2.86l-4.57,0l-4.58,-2.86l-2.28,-2.85l-2.29,-2.86l-4.59,0z" fill="#FEFEE9" fill-rule="evenodd" id="svg_13" stroke="#646464" stroke-miterlimit="8" stroke-width="1.02" transform="matrix(1 0 0 1 0 0)">제주</path>
   <path d="m2077.11,1158.22l0.69,0.39l-0.22,0.76l-0.24,1.03l-0.27,0.87l-0.31,0.63l0.22,1.5l-0.23,0.76l-0.14,0.71l-0.95,0.7l-1,0.87l-0.25,1l-0.49,0.94l-0.09,1.16l-0.41,0.94l-1.97,1.54l-1.25,-0.11l-0.66,0.67l-0.78,-0.64l-1.91,-0.4l-0.66,0.73l-0.7,-0.3l-0.28,0.77l-0.45,0.29l-0.3,0.41l-0.22,0.28l0.03,-0.01l-1.08,3.74l-0.68,9.47l-0.56,5.71l-4.97,14.52l3.92,2.7l4.37,2.27l-2.37,2.35l2.88,7.04l1.96,0.7l3.39,2.19l2.38,7.09l2.83,-5.36l2.26,-8.56l2.25,-8.58l2.26,0l2.26,0l2.26,8.58l4.51,5.7l4.52,5.71l4.51,-2.85l2.27,-2.86l0,-5.7l0,-8.58l2.25,-8.56l4.51,-8.57l2.27,-2.86l0,-5.7l4.51,0l0,-5.71l-2.26,0l-2.25,-2.86l-4.52,2.86l-2.26,2.85l-2.25,-5.71l0,-2.85l-2.27,-2.86l0,-2.86l-2.26,0l-2.25,2.86l-6.78,2.86l-4.51,-2.86l0,-2.86l0,-2.85l-2.26,-2.86l-2.26,0l0,-2.85l-3.47,-0.11l-0.27,0.73z" fill="#FEFEE9" fill-rule="evenodd" id="svg_14" stroke="#646464" stroke-miterlimit="8" stroke-width="1.02" transform="matrix(1 0 0 1 0 0)">제주</path>
   <path d="m2001.68,1888.24l2.3,2.84l-2.3,0l-2.29,2.85l2.29,2.84l0,2.84l-2.29,2.84l-4.59,5.69l-6.89,5.69l-2.29,2.85l-2.29,5.68l0,2.84l-2.3,2.85l-4.58,0l-2.3,0l-4.59,0l-6.88,5.69l-20.65,5.69l-6.88,5.68l-6.88,2.84l-9.17,-2.84l-9.19,2.84l-9.17,-2.84l-18.35,0l-6.89,2.84l-2.29,5.69l-2.3,2.85l-4.58,-2.85l-4.59,-8.53l-4.59,0l-6.88,-8.53l-2.29,-5.69l4.58,-11.37l2.3,-5.69l2.29,-2.84l6.88,-2.85l6.88,-11.37l4.59,0l2.3,-5.69l9.18,-2.84l20.64,-8.54l4.59,-2.84l18.35,-2.84l13.77,-5.69l2.29,0l16.06,-2.84l9.18,0l6.88,2.84l2.29,2.85l2.3,2.84l9.18,2.84l4.59,2.84l0,8.54l2.29,2.84l2.29,-2.84" fill="#FEFEE9" fill-rule="evenodd" id="svg_15" stroke="#646464" stroke-miterlimit="8" stroke-width="1.02" transform="matrix(1 0 0 1 0 0)">제주</path>
   <path d="m1902.54,1424.82l-2.28,-2.83l-2.28,-2.83l2.28,-5.67l2.28,-5.66l6.83,-14.18l4.56,-5.66l4.56,-2.83l9.11,0l4.56,0l4.56,-2.84l2.28,-5.66l2.28,0l4.56,5.66l4.56,2.84l2.27,0l-2.27,-8.5l-2.28,-2.83l-2.28,-2.84l-29.63,5.67l-9.12,-5.67l0,-8.5l0,-2.83l4.56,0l4.56,-5.67l4.56,-2.83l4.56,-5.67l9.11,-2.84l4.56,-8.5l0,-5.66l4.56,-2.83l2.28,0l0,-2.84l6.83,0l6.84,0l4.56,5.67l2.28,0l2.28,2.83l2.28,-2.83l0,-2.83l0,-2.84l-2.28,0l-2.28,-2.83l-2.28,0l-4.56,-5.66l-4.56,0l-2.28,-2.84l2.28,0l0,-2.84l2.28,-2.83l2.28,0l11.4,0l2.27,0l2.28,-2.83l2.28,-2.83l2.28,0l0,-2.84l-2.28,-2.83l-2.28,0l-2.28,0l-13.67,5.67l-4.56,0l-9.11,0l-9.12,0l0,-5.67l0,-5.66l-2.28,0l-6.84,-2.84l-9.11,2.84l0,-8.51l18.23,-2.83l9.12,0l9.11,0l4.56,-2.84l2.28,0l4.56,0l6.83,-5.66l9.12,-5.67l4.56,-2.83l0,-2.83l-11.4,2.83l9.12,-8.5l9.12,-2.84l11.39,-2.83l20.51,-5.66l6.84,2.83l-2.28,8.5l4.56,8.5l4.56,-2.83l6.83,0l9.12,-2.83l4.56,0l2.28,-2.84l4.55,0l2.28,-5.67l2.28,-2.83l0,-8.5l4.56,-8.5l2.28,-8.5l2.28,-8.5l2.28,0l2.28,0l2.27,8.5l4.56,5.66l4.56,5.68l4.56,-2.84l2.28,-2.84l6.84,0l4.56,0l6.84,5.68l2.28,5.66l0,8.5l0,8.5l4.56,8.5l4.55,5.67l2.28,2.83l2.28,0l2.28,0l2.28,0l4.56,5.66l6.84,2.84l2.27,0l4.56,2.83l4.56,-5.67l9.12,-2.83l2.28,2.83l2.27,2.84l2.28,-2.84l2.28,-2.83l9.12,14.17l-2.28,14.17l-6.84,8.49l-2.28,5.68l-9.11,5.66l-4.56,0l-2.28,0l-2.28,0l-4.56,8.5l-2.28,5.66l-4.55,2.84l-2.28,5.66l-2.28,8.51l-2.28,5.66l-2.28,5.67l-2.28,8.5l-2.28,5.67l-2.28,5.66l0,5.67l4.56,2.83l0,2.83l2.28,2.84l2.28,5.66l-2.28,5.68l2.28,5.66l4.56,2.83l-2.28,5.67l-9.12,11.34l0,5.66l0,5.67l-4.56,2.83l-11.39,-8.5l-11.4,-2.83l-9.12,2.83l-4.56,5.67l-6.84,2.83l-6.83,0l-6.84,0l-6.84,0l-2.28,-2.83l-4.55,-2.83l-2.28,2.83l-4.56,0l-4.56,0l-6.84,2.83l-6.83,0l-4.56,-5.66l0,-8.5l-4.56,-2.84l0,-5.67l0,-5.66l-2.28,-8.5l-6.84,0l0,2.83l-2.27,2.83l-2.28,2.84l0,2.83l-6.84,0l-9.12,-11.33l-4.55,-5.67l-4.56,0l-2.28,0l-4.56,2.84l-6.84,0l-4.55,2.83l0,2.83l0,5.67l-2.28,2.83l-2.28,0l0,2.83l2.28,2.83l-2.28,2.84l-2.28,2.84l-4.56,2.83l-2.28,0l-2.28,2.83l-4.55,0l-4.56,2.84l-6.84,0l-6.84,2.83l-4.56,-2.83l0,-5.67l2.28,-5.67l0,-8.5l-4.55,-2.83l-18.24,5.66l-4.55,0" fill="#FEFEE9" fill-rule="evenodd" id="svg_29" stroke="#646464" stroke-miterlimit="8" stroke-width="1.02" transform="matrix(1 0 0 1 0 0)">제주</path>
   <path d="m1866.97,1376.49l0,-2.75l2.2,-2.75l-2.2,0l2.2,0l0,-2.75l2.2,0l2.2,0l2.2,-2.75l2.2,0l0,2.75l0,2.75l-4.4,2.75l-2.2,2.75l-2.2,0l-2.2,0" fill="#FEFEE9" fill-rule="evenodd" id="svg_30" stroke="#646464" stroke-miterlimit="8" stroke-width="1.02" transform="matrix(1 0 0 1 0 0)">제주</path>
   <path d="m1987.72,1405.49l-4.56,2.84l-6.83,0l-4.56,2.84l0,2.84l0,5.68l-2.28,2.84l-2.28,0l0,2.84l2.28,2.84l-2.28,2.84l-2.27,2.84l-4.56,2.84l-2.28,0l-2.28,2.84l-4.55,0l-4.55,2.84l-6.84,0l-6.83,2.84l-4.56,-2.84l0,-5.68l2.28,-5.68l0,-8.52l-4.55,-2.84l-18.23,5.68l-4.56,0l2.28,5.68l2.28,2.84l-2.28,0l-4.56,-2.84l-2.27,-2.84l-4.56,5.68l-2.28,2.84l0,2.84l0,2.84l0,2.84l0,2.84l-2.28,0l0,2.84l-2.28,0l0,2.84l2.28,0l2.28,2.84l-4.56,0l-4.55,0l-2.28,0l-2.28,2.84l4.56,0l2.28,0l4.55,0l-2.28,2.84l2.28,2.84l2.28,0l0,2.84l-2.28,0l0,2.84l0,2.84l6.84,8.52l2.28,5.68l2.27,2.84l4.56,0l0,2.84l0,2.84l0,2.84l-4.56,11.36l-2.27,0l-2.28,-2.84l0,-2.84l2.28,-2.84l-2.28,0l-2.28,0l-2.28,-2.84l-2.28,0l-2.28,0l0,-2.84l0,-2.84l-2.27,0l0,-2.84l0,-2.84l0,-2.84l0,-2.84l0,-2.84l-2.28,5.68l-2.28,2.84l-2.28,0l0,-2.84l-4.56,-2.84l-4.55,0l-2.28,5.68l0,2.84l6.83,5.68l-2.27,2.84l2.27,5.68l2.28,0l2.28,-2.84l-2.28,-5.68l4.56,0l2.28,2.84l6.83,8.52l0,5.68l-4.55,5.68l0,5.68l-4.56,-2.84l-2.28,0l-2.28,2.84l2.28,0l0,2.84l2.28,0l2.28,2.84l-2.28,0l-2.28,0l2.28,2.84l4.56,0l4.55,0l2.28,-2.84l-2.28,-2.84l0,-2.84l2.28,0l2.28,-2.84l2.28,0l2.28,-2.84l4.55,2.84l-2.28,2.84l-2.27,0l-4.56,2.84l0,5.68l2.28,2.84l2.28,5.68l2.27,2.84l-2.27,0l-2.28,2.84l2.28,2.84l0,2.84l-2.28,2.84l-2.28,2.84l-2.28,2.84l-2.28,2.84l0,2.84l2.28,0l4.56,0l2.28,0l0,-2.84l2.27,0l4.56,0l4.56,0l0,-2.84l2.28,0l2.27,2.84l-2.27,2.84l2.27,2.84l2.28,0l2.28,-2.84l2.28,-8.52l2.28,-5.68l0,-2.84l0,-2.84l0,-2.84l2.28,-2.84l2.27,0l2.28,0l2.28,2.84l0,2.84l-2.28,2.84l0,2.84l0,2.84l0,2.84l9.11,0l4.56,0l2.28,5.68l-2.28,0l-4.56,0l2.28,2.84l-4.55,0l-9.12,-2.84l-4.55,2.84l-2.28,2.84l0,2.84l0,5.68l-2.28,-2.84l-2.28,2.84l-9.11,-8.52l-6.84,2.84l-6.83,0l-2.28,0l-2.28,5.68l4.56,2.84l4.56,0l4.55,0l4.56,0l4.56,2.84l4.55,0l6.84,8.52l4.55,2.84l-2.27,2.84l6.83,5.68l2.28,2.84l-4.56,0l-4.55,-2.84l-4.56,-2.84l-2.28,0l4.56,5.68l-2.28,0l-2.28,0l-2.28,-2.84l-2.28,0l-2.27,-2.84l-2.28,-2.84l-2.28,0l-2.28,-2.84l0,-2.84l0,-2.84l0,-2.84l-9.11,0l-4.56,0l0,2.84l0,5.68l0,5.68l0,2.84l2.28,0l2.28,-2.84l2.28,0l0,5.68l2.27,2.84l2.28,2.84l2.28,0l2.28,0l2.28,0l-2.28,5.68l-2.28,0l-4.56,-2.84l-9.11,-2.84l-2.28,0l-4.55,-11.36l0,-2.84l0,-2.84l0,-2.84l2.27,-2.84l-6.83,-8.52l0,-2.84l-2.28,0l0,-2.84l-2.28,0l-2.28,2.84l0,2.84l0,2.84l-2.27,5.68l-2.28,5.68l2.28,8.52l2.27,2.84l6.84,2.84l0,2.84l-2.28,0l-2.28,0l-2.28,2.84l2.28,0l4.56,5.68l2.28,0l2.28,0l0,-2.84l2.27,0l0,2.84l4.56,2.84l2.28,2.84l0,2.84l2.28,0l2.28,0l4.55,0l2.28,0l2.28,0l2.28,-2.84l0,-2.84l2.28,0l2.27,0l2.28,0l2.28,-2.84l2.28,0l2.28,2.84l-2.28,2.84l-4.56,2.84l2.28,0l2.28,2.84l2.28,2.84l-4.56,0l-6.83,0l-2.28,2.84l-2.28,5.68l4.56,0l0,2.84l0,2.84l-2.28,2.84l0,2.84l2.28,0l2.27,0l2.28,0l0,2.84l2.28,0l-2.28,2.84l-2.28,5.68l-2.27,0l0,5.68l-2.28,0l0,2.84l6.83,0l2.28,0l2.28,2.84l0,2.84l-2.28,5.68l0,2.84l2.28,0l9.11,-2.84l4.56,0l0,-2.84l0,-2.84l4.55,-17.04l2.28,0l2.28,-2.84l4.55,0l2.28,-2.84l0,-2.84l2.27,-2.84l2.28,0l2.28,2.84l2.28,0l0,-2.84l-2.28,0l-2.28,-2.84l2.28,-2.84l9.11,-2.84l-4.55,-5.68l-2.28,-2.84l6.83,-2.84l0,-2.84l-2.27,-2.84l0,-2.84l0,-2.84l2.27,-2.84l2.28,0l2.28,-2.84l2.28,2.84l0,2.84l2.28,2.84l-2.28,5.68l0,2.84l0,14.2l2.28,2.84l2.28,2.84l6.83,0l4.56,5.68l2.27,0l0,-2.84l0,-2.84l0,-2.84l2.28,0l4.56,0l2.28,0l0,-11.36l11.39,-8.52l-2.28,-5.68l0,-2.84l2.28,0l2.28,-2.84l0,-2.84l0,-2.84l0,-2.84l2.28,0l2.27,0l2.28,-2.84l2.28,-2.84l9.11,-2.84l0,-2.84l4.56,-2.84l2.28,-2.84l2.28,0l4.55,0l2.28,0l2.28,0l2.28,-5.68l4.55,-8.52l2.28,-5.68l4.56,8.52l4.56,2.84l4.55,-2.84l2.28,-2.84l2.28,2.84l2.28,5.68l2.28,2.84l-2.28,2.84l-2.28,5.68l-2.28,2.84l-2.28,0l-2.28,0l-2.27,-2.84l0,-2.84l0,-2.84l0,-2.84l-2.28,0l0,-2.84l-6.84,8.52l0,5.68l2.28,2.84l0,2.84l0,5.68l-2.28,5.68l-4.55,0l-4.56,2.84l2.28,-8.52l0,-2.84l0,-5.68l-2.28,2.84l-2.28,0l-2.28,5.68l-2.27,5.68l-2.28,2.84l-4.56,2.84l0,5.68l2.28,2.84l2.28,0l2.28,0l2.27,2.84l0,-2.84l6.84,-5.68l2.28,0l6.83,8.52l4.56,5.68l6.83,11.36l4.56,0l-2.28,-2.84l0,-5.68l6.84,-2.84l2.27,0l4.56,-2.84l9.11,-8.52l-4.55,-5.68l-6.84,2.84l-2.28,0l-2.27,-2.84l-2.28,-2.84l-2.28,-2.84l2.28,0l2.28,-2.84l4.55,-2.84l2.28,0l2.28,2.84l9.11,5.68l2.28,-2.84l4.56,0l2.28,-2.84l0,-5.68l-2.28,-2.84l-6.84,-2.84l4.56,0l2.28,0l-4.56,-5.68l-6.83,-2.84l-4.56,-5.68l-2.28,-11.36l2.28,0l-2.28,-2.84l-2.28,0l-4.55,0l0,-2.84l4.55,-2.84l6.84,-2.84l0,-2.84l-2.28,0l-6.84,-2.84l-2.27,-2.84l4.55,0l6.84,0l4.55,0l6.84,-2.84l2.28,0l0,-2.84l4.55,-8.52l2.28,0l0,2.84l0,2.84l0,2.84l2.28,5.68l0,2.84l0,2.84l2.28,0l2.28,0l2.27,8.52l2.28,0l0,5.68l-2.28,5.68l-2.27,2.84l0,5.68l0,5.68l2.27,2.84l4.56,2.84l4.56,0l2.28,2.84l2.27,2.84l0,-2.84l0,-11.36l-2.27,-2.84l0,-2.84l2.27,0l2.28,-8.52l4.56,2.84l6.83,2.84l6.84,-2.84l0,-2.84l2.28,-14.2l2.28,-5.68l0,-2.84l0,-5.68l-2.28,2.84l-4.56,0l-2.28,-2.84l-4.55,2.84l-6.84,5.68l-2.28,0l-2.28,0l-2.27,-2.84l-2.28,-2.84l-2.28,-5.68l-4.56,-2.84l-2.28,-5.68l0,-2.84l2.28,-5.68l2.28,-2.84l2.28,0l4.56,8.52l2.27,2.84l4.56,-2.84l6.84,-5.68l2.27,-2.84l2.28,-5.68l-2.28,-2.84l2.28,-2.84l2.28,2.84l0,2.84l2.28,2.84l2.28,0l6.83,0l2.28,0l0,-2.84l0,-2.84l-2.28,-5.68l-13.67,-14.2l-2.28,-5.68l0,-5.68l-4.55,-2.84l-4.56,-2.84l-4.56,-5.68l0,-14.2l-2.27,-5.68l-4.56,-5.68l2.28,-5.68l-11.39,-8.52l-11.39,-2.84l-9.12,2.84l-4.55,5.68l-6.84,2.84l-6.83,0l-6.84,0l-6.83,0l-2.28,-2.84l-4.56,-2.84l-2.28,2.84l-4.55,0l-4.56,0l-6.83,2.84l-6.84,0l-4.56,-5.68l0,-8.52l-4.55,-2.84l0,-5.68l0,-5.68l-2.28,-8.52l-6.84,0l0,2.84l-2.27,2.84l-2.28,2.84l0,2.84l-6.84,0l-9.11,-11.36l-4.56,-5.68l-4.55,0l-2.28,0zm-17.32,48.32l-1.02,5.19l5.58,2.72l3.64,1.16l4.04,-3.17l2.78,0.27l3.41,-2.09l2.55,-1.68l1.49,-0.63l2.99,-0.14l4.04,-1.23l3.01,1.15l4.12,6.38l0.23,2.61l2.16,2.65l-0.41,1.73l0.88,2.84l5.48,-0.89l3.5,2.15l1.32,3.5l-1.88,5.61l0.26,4.35l-2.76,3.62l-2.96,4.06l-3.83,1.66l-5.75,1.39l-2.8,-3.1l-4.48,2.94l-1.71,-0.68l-2.54,1.69l-2.59,-1.15l-2.96,2.77l-3.62,1.43l-4.04,1.44l-3.01,-0.93l-2.99,0.8l-1.07,-1.32l-1.93,-0.04l-0.23,-2.17l1.9,-2.14l-4.1,-6.38l-2.16,-1.34l-6.41,-1.01l-2.21,1.27l-3.13,0.14l-1.51,-1.56l-2.8,-2.43l0.16,-5.43l0.18,-4.77l2.13,-0.38l1.28,-1.94l-3.25,-4.61l4.27,-0.13l1.88,-4.95l2.57,1.58l4.47,-3.85l3.57,-6.18l4.26,-0.78z" fill="#FEFEE9" fill-rule="evenodd" id="svg_31" stroke="#646464" stroke-miterlimit="8" stroke-width="1.02" transform="matrix(1 0 0 1 0 0)">제주</path>
   <path d="m2046.33,1640.49l6.82,0l2.27,0l2.28,2.83l2.27,2.84l0,5.66l-2.27,2.84l-4.55,2.83l-6.82,0l-4.54,0l-2.28,-2.83l-4.54,-2.84l2.27,-2.83l-2.27,-2.83l2.27,-2.84l2.27,0l6.82,-2.83" fill="#FEFEE9" fill-rule="evenodd" id="svg_32" stroke="#646464" stroke-miterlimit="8" stroke-width="1.02" transform="matrix(1 0 0 1 0 0)">제주</path>
   <path d="m1890.98,1638.54l0,2.84l0,5.69l-2.25,2.84l-2.25,8.53l-2.25,2.84l-2.25,0l-2.25,-2.84l-2.25,0l0,2.84l-20.25,11.37l-2.25,0l-6.75,2.84l-2.25,-2.84l0,-2.85l2.25,0l0,-2.83l-6.75,-5.69l0,5.69l-4.5,-5.69l2.25,-8.53l6.75,-5.68l4.5,0l2.25,-5.69l0,-2.84l2.25,0l2.25,-2.84l2.25,0l2.25,0l0,-2.84l2.25,2.84l2.25,0l2.25,-2.84l2.25,-2.85l-2.25,-2.84l-4.5,-5.68l2.25,0l2.25,0l2.25,0l4.5,2.85l2.25,0l0,2.83l0,2.84l2.25,0l4.5,-2.84l0,2.84l6.75,8.53" fill="#FEFEE9" fill-rule="evenodd" id="svg_33" stroke="#646464" stroke-miterlimit="8" stroke-width="1.02" transform="matrix(1 0 0 1 0 0)">제주</path>
   <path d="m2165.15,1592.24l2.29,0l2.28,2.92l0,5.83l2.28,5.83l0,2.92l0,2.92l-2.28,2.91l-2.28,2.92l-2.29,0l-2.29,0l-6.86,-8.75l0,-2.92l2.29,-2.91l0,-2.92l4.57,-2.92l2.29,-5.83l-4.57,-5.83l2.28,-2.92l2.29,0l2.29,2.92l2.28,0l-2.28,2.91l-2.29,2.92" fill="#FEFEE9" fill-rule="evenodd" id="svg_34" stroke="#646464" stroke-miterlimit="8" stroke-width="1.02" transform="matrix(1 0 0 1 0 0)">제주</path>
   <path d="m1814.47,1587.2l2.25,0l2.25,2.86l0,2.86l-2.25,2.85l-2.25,2.86l-2.25,2.86l-2.25,0l0,-2.86l-2.25,0l-4.5,-2.86l-2.25,-2.85l2.25,-2.86l4.5,-2.86l4.5,-2.86l0,-2.85l2.25,2.85l0,2.86" fill="#FEFEE9" fill-rule="evenodd" id="svg_35" stroke="#646464" stroke-miterlimit="8" stroke-width="1.02" transform="matrix(1 0 0 1 0 0)">제주</path>
   <path d="m1818.97,1569.32l0,5.67l-2.3,-2.84l-2.3,0l0,2.84l-4.6,0l-2.3,0l0,2.83l-2.3,2.83l-2.3,2.84l-2.3,0l-2.3,0l-2.3,-2.84l0,-2.83l0,-2.83l2.3,-2.84l2.3,-2.83l2.3,0l2.3,0l4.6,0l4.6,-2.83l2.3,0l2.3,0l0,2.83" fill="#FEFEE9" fill-rule="evenodd" id="svg_36" stroke="#646464" stroke-miterlimit="8" stroke-width="1.02" transform="matrix(1 0 0 1 0 0)">제주</path>
   <path d="m1827.66,1539.15l2.12,-5.66l2.11,2.83l2.11,2.83l0,2.84l0,2.83l-2.11,2.83l-2.11,2.84l-2.12,0l-2.11,0l-2.11,-2.84l-6.33,2.84l-2.11,0l0,-2.84l2.11,0l4.22,-5.66l2.11,-2.84l2.11,0l2.11,0" fill="#FEFEE9" fill-rule="evenodd" id="svg_37" stroke="#646464" stroke-miterlimit="8" stroke-width="1.02" transform="matrix(1 0 0 1 0 0)">제주</path>
   <path d="m1838.97,1504.49l-2.4,0l-4.8,-2.75l-2.4,2.75l0,-2.75l-2.4,0l2.4,-8.25l0,-2.75l2.4,0l2.4,0l2.4,-2.75l2.4,-2.75l2.4,-2.75l4.8,0l4.8,0l-7.2,2.75l-2.4,2.75l0,2.75l2.4,2.75l2.4,2.75l-2.4,0l-2.4,2.75l-2.4,2.75l0,2.75" fill="#FEFEE9" fill-rule="evenodd" id="svg_38" stroke="#646464" stroke-miterlimit="8" stroke-width="1.02" transform="matrix(1 0 0 1 0 0)">제주</path>
   <path d="m2074.47,1754.74l2.5,2.75l-2.5,0l-5,0l0,-2.75l0,-2.75l-2.5,0l0,-2.75l0,-2.75l2.5,0l2.5,0l-2.5,2.75l0,2.75l5,2.75" fill="#FEFEE9" fill-rule="evenodd" id="svg_39" stroke="#646464" stroke-miterlimit="8" stroke-width="1.02" transform="matrix(1 0 0 1 0 0)">제주</path>
   <path d="m2116.97,1649.09l0,2.8l0,2.8l-2.29,0l-2.28,2.8l-4.57,0l0,-2.8l-2.29,0l-2.29,0l0,-2.8l-2.28,-2.8l0,-2.8l0,-2.8l2.28,2.8l2.29,0l2.29,0l2.28,0l2.29,0l4.57,2.8" fill="#FEFEE9" fill-rule="evenodd" id="svg_40" stroke="#646464" stroke-miterlimit="8" stroke-width="1.02" transform="matrix(1 0 0 1 0 0)">제주</path>
   <path d="m2164.86,1635.29l2.14,2.6l0,2.6l-2.14,0l-2.14,0l-2.15,-2.6l-2.13,0l-2.15,-2.6l-2.15,0l0,-2.6l-2.14,0l0,-2.6l0,-2.6l4.29,0l2.15,0l2.13,0l4.29,5.2l-2.14,2.6l2.14,0" fill="#FEFEE9" fill-rule="evenodd" id="svg_41" stroke="#646464" stroke-miterlimit="8" stroke-width="1.02" transform="matrix(1 0 0 1 0 0)">제주</path>
   <path d="m1836.97,1615.49l0,3l0,3l0,3l-2.34,0l0,3l-2.33,0l-4.67,3l-2.33,0l-2.33,0l2.33,0l0,-3l2.33,0l-4.66,-3l2.33,0l2.33,0l2.34,0l2.33,-3l0,-3l0,-3l-2.33,-3l0,-3l0,-3l2.33,3l2.33,0l2.34,3l0,3" fill="#FEFEE9" fill-rule="evenodd" id="svg_42" stroke="#646464" stroke-miterlimit="8" stroke-width="1.02" transform="matrix(1 0 0 1 0 0)">제주</path>
   <path d="m1825.52,1621.49l-2.25,0l-2.25,0l0,-9l0,-6l2.25,0l2.25,3l2.25,6l2.25,3l-2.25,3l-2.25,0" fill="#FEFEE9" fill-rule="evenodd" id="svg_43" stroke="#646464" stroke-miterlimit="8" stroke-width="1.02" transform="matrix(1 0 0 1 0 0)">제주</path>
   <path d="m1708.81,1592.32l2.16,0l-2.16,2.83l-4.34,5.67l0,2.83l-2.16,2.84l-2.17,0l-2.17,-5.67l0,-2.83l2.17,-2.84l0,-2.83l2.17,0l2.16,-2.83l2.17,0l0,2.83l2.17,0" fill="#FEFEE9" fill-rule="evenodd" id="svg_44" stroke="#646464" stroke-miterlimit="8" stroke-width="1.02" transform="matrix(1 0 0 1 0 0)">제주</path>
   <path d="m1850.67,1580.99l2.3,2.83l0,2.83l-2.3,2.84l-2.3,0l-2.3,-2.84l-2.3,-2.83l-2.3,0l-2.3,0l-2.3,0l0,-2.83l-2.3,-2.84l-2.3,-2.83l-2.3,-2.83l2.3,0l2.3,0l2.3,0l2.3,0l2.3,0l2.3,2.83l2.3,0l2.3,0l2.3,2.83l0,2.84" fill="#FEFEE9" fill-rule="evenodd" id="svg_45" stroke="#646464" stroke-miterlimit="8" stroke-width="1.02" transform="matrix(1 0 0 1 0 0)">제주</path>
   <path d="m1850.97,1567.24l-2.42,2.75l0,2.75l-2.43,2.75l-2.43,-2.75l-2.43,-2.75l-4.86,0l-2.43,-2.75l2.43,0l4.86,0l4.86,-2.75l2.43,0l2.42,2.75" fill="#FEFEE9" fill-rule="evenodd" id="svg_46" stroke="#646464" stroke-miterlimit="8" stroke-width="1.02" transform="matrix(1 0 0 1 0 0)">제주</path>
   <path d="m1832.22,1558.82l-2.25,0l0,-2.83l0,-2.84l2.25,-2.83l2.25,0l2.25,2.83l2.25,0l0,-2.83l0,-2.83l2.25,0l2.25,0l2.25,0l2.25,2.83l-4.5,0l2.25,5.67l-2.25,2.83l-2.25,0l0,2.83l-2.25,2.84l-2.25,0l-2.25,0l-2.25,-5.67" fill="#FEFEE9" fill-rule="evenodd" id="svg_47" stroke="#646464" stroke-miterlimit="8" stroke-width="1.02" transform="matrix(1 0 0 1 0 0)">제주</path>
   <path d="m1866.97,1535.99l-2.34,2.5l-2.33,0l-2.33,-2.5l0,-2.5l2.33,0l4.67,0l0,2.5" fill="#FEFEE9" fill-rule="evenodd" id="svg_48" stroke="#646464" stroke-miterlimit="8" stroke-width="1.02" transform="matrix(1 0 0 1 0 0)">제주</path>
   <path d="m1852.97,1504.49l0,3l0,3l-2.4,0l-2.4,-3l-2.4,0l-2.4,0l0,-3l-2.4,0l2.4,0l0,-3l2.4,0l0,3l4.8,-3l0,3l2.4,0" fill="#FEFEE9" fill-rule="evenodd" id="svg_49" stroke="#646464" stroke-miterlimit="8" stroke-width="1.02" transform="matrix(1 0 0 1 0 0)">제주</path>
   <path d="m1647.57,1748.49l-2.4,-2.75l-2.4,-2.75l-2.4,0l-2.4,-2.75l2.4,-2.75l2.4,0l2.4,2.75l2.4,5.5l2.4,0l-2.4,2.75" fill="#FEFEE9" fill-rule="evenodd" id="svg_50" stroke="#646464" stroke-miterlimit="8" stroke-width="1.02" transform="matrix(1 0 0 1 0 0)">제주</path>
   <path d="m1934.75,1717.29l0,2.8l2.22,0l0,2.8l0,-2.8l-2.22,0l0,2.8l-2.22,-2.8l-2.23,0l0,2.8l-2.22,0l0,2.8l-2.22,0l-4.44,2.8l-2.23,0l-2.22,-2.8l0,-2.8l2.22,-5.6l2.23,-2.8l2.22,0l4.44,2.8l2.22,0l2.23,0l2.22,0" fill="#FEFEE9" fill-rule="evenodd" id="svg_51" stroke="#646464" stroke-miterlimit="8" stroke-width="1.02" transform="matrix(1 0 0 1 0 0)">제주</path>
   <path d="m1948.72,1722.92l2.25,0l-2.25,2.86l0,2.85l-2.25,2.86l-2.25,0l0,-2.86l-2.25,0l0,-2.85l0,-5.72l2.25,-2.85l-2.25,-2.86l2.25,-2.86l4.5,2.86l-2.25,2.86l0,2.85l2.25,2.86" fill="#FEFEE9" fill-rule="evenodd" id="svg_52" stroke="#646464" stroke-miterlimit="8" stroke-width="1.02" transform="matrix(1 0 0 1 0 0)">제주</path>
   <path d="m1994.4,1711.49l2.28,3l2.29,0l-2.29,3l0,3l-2.28,3l-4.57,0l-2.29,-3l-2.29,0l-2.28,0l0,-3l2.28,-3l0,-3l2.29,-3l2.29,0l2.28,0l2.29,3" fill="#FEFEE9" fill-rule="evenodd" id="svg_53" stroke="#646464" stroke-miterlimit="8" stroke-width="1.02" transform="matrix(1 0 0 1 0 0)">제주</path>
   <path d="m1936.97,1706.29l0,2.8l0,2.8l-2.16,2.8l-2.17,0l-2.17,0l2.17,0l-2.17,2.8l-2.16,-2.8l-2.17,0l-2.17,-2.8l2.17,-2.8l0,-2.8l2.17,0l-2.17,0l0,-2.8l2.17,0l2.16,0l2.17,0l2.17,2.8l2.16,0" fill="#FEFEE9" fill-rule="evenodd" id="svg_54" stroke="#646464" stroke-miterlimit="8" stroke-width="1.02" transform="matrix(1 0 0 1 0 0)">제주</path>
   <path d="m1834.01,1683.49l0,3l0,3l0,3l-2.17,0l-2.17,0l0,-3l-2.16,0l0,3l-4.34,-3l-2.16,0l0,-3l2.16,0l0,-3l6.5,0l2.17,0l2.17,0" fill="#FEFEE9" fill-rule="evenodd" id="svg_55" stroke="#646464" stroke-miterlimit="8" stroke-width="1.02" transform="matrix(1 0 0 1 0 0)">제주</path>
   <path d="m1984.97,1683.74l-2.34,2.75l-2.33,0l0,-2.75l-2.33,-2.75l-2.34,0l-2.33,0l-2.33,0l-2.34,0l-4.66,-2.75l2.33,0l2.33,0l2.34,-2.75l0,2.75l2.33,0l2.33,-2.75l2.34,0l2.33,0l2.33,0l2.34,0l2.33,0l2.33,0l2.34,2.75l-2.34,2.75l0,2.75l-2.33,0l-2.33,0" fill="#FEFEE9" fill-rule="evenodd" id="svg_56" stroke="#646464" stroke-miterlimit="8" stroke-width="1.02" transform="matrix(1 0 0 1 0 0)">제주</path>
   <path d="m2030,1674.99l0,2.83l-2.23,0l-2.22,0l0,2.84l-4.45,2.83l-2.22,0l0,-2.83l2.22,0l0,-2.84l-4.44,0l0,-2.83l-4.44,0l0,-2.83l-2.22,0l2.22,0l2.21,0l0,-2.84l2.23,-2.83l2.22,2.83l2.22,0l0,2.84l2.23,0l2.22,0l2.22,0l0,2.83l2.23,0" fill="#FEFEE9" fill-rule="evenodd" id="svg_57" stroke="#646464" stroke-miterlimit="8" stroke-width="1.02" transform="matrix(1 0 0 1 0 0)">제주</path>
   <path d="m1965.99,1683.69l0,2.9l0,2.9l-2.18,0l-2.19,-2.9l-2.18,2.9l-2.17,0l-2.18,0l-4.37,-2.9l0,-2.9l2.18,0l0,-2.9l-2.18,0l-2.18,0l-2.19,0l-2.18,0l0,-2.9l-2.18,-2.9l0,-2.9l0,-2.9l2.18,-2.9l0,-2.9l2.18,0l2.19,0l2.18,-2.9l2.18,2.9l2.19,0l2.18,2.9l2.17,5.8l0,2.9l2.18,2.9l0,2.9l4.37,2.9" fill="#FEFEE9" fill-rule="evenodd" id="svg_58" stroke="#646464" stroke-miterlimit="8" stroke-width="1.02" transform="matrix(1 0 0 1 0 0)">제주</path>
   <path d="m1966.3,1666.78l-2.33,0l0,-2.86l2.33,0l0,-2.86l2.33,-5.71l4.67,0l4.67,-2.86l2.33,0l0,2.86l0,2.85l2.33,0l2.34,2.86l0,2.86l-4.67,0l-2.33,0l0,2.86l-7,0l0,2.85l-2.34,2.86l-2.33,0l0,-2.86l0,-2.85" fill="#FEFEE9" fill-rule="evenodd" id="svg_59" stroke="#646464" stroke-miterlimit="8" stroke-width="1.02" transform="matrix(1 0 0 1 0 0)">제주</path>
   <path d="m1885.6,1550.49l2.37,0l0,6l-2.37,3l-2.36,0l2.36,-3l-2.36,0l-4.73,-3l-7.09,0l-2.36,0l-2.37,0l-2.36,0l-2.36,0l2.36,-3l2.36,0l4.73,0l0,-3l2.36,-3l2.37,0l0,-3l-2.37,-3l2.37,-3l2.36,3l4.73,0l2.36,3l0,3l-2.36,0l-2.36,0l0,3l0,3l4.72,0" fill="#FEFEE9" fill-rule="evenodd" id="svg_60" stroke="#646464" stroke-miterlimit="8" stroke-width="1.02" transform="matrix(1 0 0 1 0 0)">제주</path>
   <path d="m1861.97,1504.78l2.33,0l-2.33,0l-4.67,-2.86l-2.33,0l-2.34,0l-2.33,-2.86l-2.33,-5.71l2.33,-2.86l2.33,0l2.34,0l0,2.86l2.33,0l2.33,-2.86l0,2.86l2.34,0l2.33,0l-2.33,2.85l-2.34,0l0,2.86l2.34,0l2.33,2.86l2.33,0l2.34,2.86l0,2.85l0,2.86l-2.34,0l-2.33,0l0,-2.86l-2.33,0l0,-2.85" fill="#FEFEE9" fill-rule="evenodd" id="svg_61" stroke="#646464" stroke-miterlimit="8" stroke-width="1.02" transform="matrix(1 0 0 1 0 0)">제주</path>
   <path d="m2431.62,1022.42l-6.82,-2.84l-4.54,2.84l-4.56,2.83l-9.08,-2.83l-6.82,-2.84l-2.28,2.84l-2.27,-2.84l-2.27,0l-2.27,-2.84l-4.55,5.68l-6.81,2.83l0,-5.67l0,-2.84l-2.27,-2.84l-4.56,0l-2.27,-5.68l-4.54,0l-6.82,2.84l-2.27,2.84l0,5.68l0,5.67l-2.28,5.67l-4.54,0l-4.55,0l-4.54,-2.83l-6.82,-2.84l-2.28,2.84l-2.27,0l-2.27,0l-2.27,2.83l-4.55,2.84l-4.54,5.68l-2.27,2.84l-4.56,0l-2.27,2.84l-2.27,2.84l-4.54,5.67l-4.55,5.68l-2.27,2.83l-2.27,5.69l0,2.83l2.27,2.84l-2.27,8.51l-15.91,5.68l-6.82,0l-2.28,-8.52l-4.54,-2.84l-4.54,-2.83l-2.28,-2.84l-2.27,2.84l-2.27,2.83l0,5.68l-2.27,2.83l-4.55,0l-6.82,-2.83l-2.27,-2.84l-4.54,2.84l-2.28,5.68l-4.55,0l-2.27,-2.85l-2.27,2.85l-4.55,5.67l0,5.67l4.55,5.68l2.27,5.68l-13.63,-2.84l-9.1,-2.84l-2.27,5.68l-6.82,2.84l-6.81,5.68l0,2.82l-2.27,2.85l-4.56,5.67l-2.27,2.84l-2.27,2.84l-2.27,0l2.27,5.68l6.82,2.83l9.09,11.35l-2.27,5.68l-2.27,5.67l-2.27,11.36l0,5.67l0,5.67l2.27,2.84l-2.27,5.68l-4.56,2.84l2.28,14.19l6.82,-2.85l4.54,0l6.82,5.69l2.27,2.83l11.37,-2.83l4.54,2.83l2.28,14.19l-4.55,-2.83l-4.54,0l-4.54,5.67l0,5.67l0,2.84l0,2.84l-2.29,2.83l-2.27,2.85l0,5.67l-4.54,5.68l-4.55,2.84l-4.54,2.83l9.09,14.2l-2.27,14.18l2.27,5.68l4.54,2.83l2.27,0l0,2.84l0,2.84l2.29,0l0,2.83l2.27,0l6.81,0l2.27,2.84l2.28,0l6.81,2.84l4.55,0l4.55,0l4.54,5.68l2.27,2.83l4.55,2.84l0,2.85l2.28,2.83l2.27,2.83l2.27,2.85l0,5.67l-2.27,5.68l4.54,11.35l11.36,0l4.55,0l6.82,0l4.54,2.83l4.55,2.84l3.4,1.43l0.88,-1.27l-2.23,-3.53l-5.41,-4.6l-3,-8.71l3.43,-0.23l11.27,2.08l2.01,-1.84l-0.41,-5.96l-6.74,-3.91l-1.59,-7.58l2.98,-7.12l3.85,-2.35l8.68,-0.16l1.7,-3.89l-6.09,-5.05l-5.92,-0.59l-6.27,-1.44l-0.86,-6.01l1.97,-2.75l4.73,-10.79l6.07,-3.43l4.86,2.07l-2.06,5.83l1.9,3.81l3.19,-0.23l2.58,2.06l6.68,-22.25l2.6,3.21l1.76,-2.52l2.03,-1.37l3.09,0.35l3.44,-2.13l6.41,-6.07l3.3,-0.16l9.34,-1.37l4.57,0.39l2.73,6.26l3.77,3.7l-1.76,10.52l3.24,3.27l1.71,4.23l1.06,8.35l-5.65,4.12l-2.07,-0.23l-2.13,5.5l-2.38,8.73l-3.37,3.29l2.73,7.97l-1.02,6.16l-5.6,2.83l-3.17,2.9l-3.21,0.46l-2.49,-0.46l-0.93,-7.8l-4.32,0.92l-3,-0.7l-9.66,5.96l1.2,5.92l2.27,14.18l4.54,5.68l4.55,5.67l6.82,-2.83l9.09,0l4.54,2.83l6.82,2.84l6.82,0l6.82,-5.67l2.27,0l4.54,-2.84l2.29,0l2.27,-2.84l6.81,-2.84l6.82,0l6.82,2.84l4.55,0l4.54,-5.68l4.54,-2.83l4.55,0l0,-2.84l-2.28,-2.84l0,-2.83l6.83,-5.69l6.81,-2.83l6.82,0l6.82,0l6.82,2.83l2.27,2.85l0,5.67l0,2.84l2.27,0l4.55,2.84l18.18,-2.84l15.91,2.84l-2.27,-2.84l-2.27,-2.84l2.27,-5.67l4.54,-5.68l4.55,-17.03l0,-8.51l4.54,-14.19l2.27,-17.03l0,-5.67l6.83,-14.19l4.54,-5.67l-2.27,-5.68l0,-2.84l-2.27,-5.67l-2.28,-2.85l-2.27,5.68l-13.64,14.19l-4.54,2.84l-4.54,0l-2.29,-2.84l-2.27,-5.67l-4.54,-2.84l0,-2.84l2.27,-2.84l2.27,0l2.27,-2.83l2.29,0l0,-5.68l-2.29,-2.84l-2.27,-5.67l0,-8.51l-2.27,0l0,-2.85l-2.27,0l0,-5.67l0,-28.37l2.27,-5.69l2.27,-2.83l6.83,-8.51l0,-2.85l2.27,-22.7l-2.27,-8.51l-2.27,-11.35l0,-8.51l2.27,-11.35l4.54,-8.51l2.27,-8.52l0,-11.36l-6.81,-19.86l-2.27,-8.51l-2.29,-22.7l0,-8.52l0,-2.83l2.29,-2.84l2.27,-2.84l-2.27,-2.84l-9.1,-14.18l-5.99,-0.23l-6.53,6.93l-6.3,0.34l-10.34,9.37l0.23,9.19l-9.71,-0.07l-6.81,-2.83z" fill="#FEFEE9" fill-rule="evenodd" id="svg_62" stroke="#646464" stroke-miterlimit="8" stroke-width="1.02" transform="matrix(1 0 0 1 0 0)">제주</path>
   <path d="m2774.37,897.49l4.6,2.87l0,5.75l-2.3,8.63l-2.3,2.87l-4.6,2.88l-4.6,0l-4.6,-2.88l-4.6,-5.75l0,-5.75l2.3,-2.87l2.3,-2.88l6.9,0l4.6,-2.87l2.3,0" fill="#FEFEE9" fill-rule="evenodd" id="svg_63" stroke="#646464" stroke-miterlimit="8" stroke-width="1.02" transform="matrix(1 0 0 1 0 0)"/>
   <path d="m2957.97,953.49c0,1.1 -0.9,2 -2,2c-1.11,0 -2,-0.9 -2,-2c0,-1.1 0.89,-2 2,-2c1.1,0 2,0.9 2,2z" fill="#FEFEE9" fill-rule="evenodd" id="svg_64" stroke="#646464" stroke-miterlimit="8" stroke-width="1.02" transform="matrix(1 0 0 1 0 0)"/>
   <path d="m2206.11,976.49l-11.42,2.84l-2.28,5.68l0,11.37l-4.57,2.84l0,2.84l-2.28,0l-2.29,0l0,-2.84l-6.85,0l-6.85,2.84l2.29,-11.37l-20.55,2.85l-20.56,5.68l-2.28,2.84l-2.28,2.84l-2.29,0l0,2.84l-2.28,2.84l-9.13,17.05l-4.57,2.84l0,-2.84l-4.57,0l-2.28,2.84l-2.28,5.68l-2.29,2.84l-4.56,0l-4.57,5.68l0,5.69l-6.85,2.84l-9.13,2.84l-9.14,2.84l2.29,5.68l2.28,0l2.28,2.84l4.57,5.69l2.28,2.84l0,5.68l2.29,2.84l0,2.84l0,2.84l-2.29,2.85l0,2.83l0,2.85l-2.28,0l-2.28,0l-2.29,2.83l-2.28,5.69l-2.45,3.05l-0.04,1.01l-1.16,1.66l-1.61,1.02l-0.93,2.18l-1.65,1.97l0.07,1.44l1.3,0.89l1.19,-0.66l0.32,1.78l0.2,1.19l0.5,0.99l1.19,1.15l0.23,2.18l0.92,1.38l-0.11,1.44l-0.18,1.54l-0.19,1.46l3.37,0.15l0.64,1l1.05,1.12l1.31,1.11l0.24,1.11l1.08,1.24l1.67,0.03l1.02,0.06l1.39,0.01l1.35,-1.15l1.35,-0.24l-0.39,1.4l0.71,0.63l0.29,1.57l1.09,0.38l2.21,0l0,2.84l0,2.85l-0.05,0l0,0.06l-2.19,0l2.24,2.77l0,2.85l0,2.83l-0.05,0l0,0.06l-2.23,0l0,2.79l0,2.84l2.28,0l2.29,2.84l0,2.84l0,2.85l4.56,2.83l6.85,-2.83l2.29,-2.85l2.28,0l0,2.85l2.28,2.83l0,2.84l2.29,5.69l2.28,-2.84l4.57,-2.85l2.28,2.85l2.28,0l0,5.68l-4.56,0l0,5.69l-2.29,2.83l-4.56,8.53l-2.29,8.52l0,8.52l0,5.69l6.85,0l4.57,0l6.85,5.67l2.28,5.69l0,8.53l0,8.51l4.57,8.53l4.57,5.69l2.28,2.83l2.28,0l2.29,0l2.28,0l4.57,5.68l6.85,2.85l2.28,0l4.57,2.84l4.57,-5.69l9.13,-2.84l2.28,2.84l2.29,2.85l2.28,-2.85l2.28,-2.84l4.57,-2.84l4.57,-2.83l4.56,-5.69l0,-5.68l2.29,-2.85l2.28,-2.84l0,-2.84l0,-2.83l0,-5.69l4.57,-5.68l4.56,0l4.58,2.84l-2.29,-14.21l-4.56,-2.84l-11.43,2.84l-2.28,-2.84l-6.85,-5.68l-4.57,0l-6.85,2.84l-2.28,-14.2l4.57,-2.85l2.28,-5.68l-2.28,-2.83l0,-5.69l0,-5.68l2.28,-11.37l2.28,-5.68l2.29,-5.69l-9.14,-11.36l-6.85,-2.84l-2.28,-5.68l2.28,0l2.29,-2.84l2.28,-2.85l4.57,-5.67l2.28,-2.85l0,-2.83l6.85,-5.68l6.85,-2.85l2.28,-5.68l9.14,2.84l13.7,2.84l-2.29,-5.68l-4.56,-5.68l0,-5.68l4.56,-5.69l2.29,-2.84l2.29,2.84l4.56,0l2.29,-5.68l4.56,-2.85l2.29,2.85l6.84,2.84l4.57,0l2.28,-2.84l0,-5.68l2.28,-2.84l2.29,-2.84l2.28,2.84l4.57,2.84l4.57,2.83l2.28,8.53l6.85,0l15.98,-5.68l2.29,-8.52l-2.29,-2.84l0,-2.85l2.29,-5.68l2.28,-2.84l4.57,-5.68l4.56,-5.68l2.29,-2.85l2.28,-2.84l4.57,0l2.28,-2.84l4.57,-5.68l4.56,-2.84l2.29,-2.84l2.29,0l2.27,0l2.29,-2.85l-2.29,-2.83l-4.56,-2.84l-4.57,0l-4.57,0l-6.85,-2.84l-4.56,-2.85l-4.57,0l-4.57,0l-4.56,0l-2.29,0l-2.28,-2.84l-4.57,-2.84l2.29,-2.84l-2.29,-2.84l-9.13,0l-6.85,2.84l-2.28,0l-2.29,0l-2.28,0l-2.29,-2.84l4.57,-5.68l4.57,-2.84l2.28,-5.69l-2.28,-2.84l-11.42,0l-11.42,-2.84l-4.56,2.84l-4.56,0l-4.58,0l-2.27,2.84l-6.85,2.84l-6.85,2.85l-2.29,-2.85l0,-5.68l-6.85,-8.52z" fill="#FEFEE9" fill-rule="evenodd" id="svg_65" stroke="#646464" stroke-miterlimit="8" stroke-width="1.02" transform="matrix(1 0 0 1 0 0)">제주</path>
   <path d="m1936.97,968.11l0,2.88l0,2.87l-8.66,8.63l-4.34,0l0,-2.88l2.17,-2.87l-2.17,-2.88l2.17,-2.87l0,-2.88l0,-2.87l-2.17,-2.88l0,-2.87l2.17,2.87l4.33,-2.87l0,2.87l0,2.88l2.17,0l4.33,2.87" fill="#FEFEE9" fill-rule="evenodd" id="svg_67" stroke="#646464" stroke-miterlimit="8" stroke-width="1.02" transform="matrix(1 0 0 1 0 0)">제주</path>
   <path d="m2311.5,1365.18l-4.52,5.65l-6.8,0l-9.07,5.66l-3.4,-1.41l0.87,-1.27l-2.22,-3.52l-5.39,-4.57l-2.99,-8.7l3.42,-0.22l11.23,2.07l2.01,-1.83l-0.41,-5.95l-6.73,-3.89l-1.58,-7.55l2.98,-7.09l3.83,-2.36l8.65,-0.14l1.7,-3.88l-6.07,-5.04l-5.91,-0.59l-6.24,-1.43l-0.87,-6l1.98,-2.74l4.7,-10.75l6.05,-3.43l4.85,2.07l-2.04,5.81l1.89,3.79l3.19,-0.22l2.56,2.06l6.66,-22.18l2.59,3.2l1.75,-2.51l2.03,-1.37l3.09,0.33l3.42,-2.1l6.4,-6.06l3.28,-0.17l9.31,-1.36l4.56,0.39l2.72,6.25l3.75,3.68l-1.75,10.5l3.23,3.25l1.71,4.22l1.06,8.32l0,0l-5.63,4.11l-2.07,-0.24l-2.12,5.49l-2.37,8.71l-3.37,3.28l2.72,7.94l-1.01,6.13l-5.59,2.83l-3.15,2.9l-3.2,0.44l-2.49,-0.45l-0.93,-7.77l-4.3,0.91l-2.99,-0.7l-9.65,5.94l1.21,5.89l-4.54,5.67z" fill="#FEFEE9" fill-rule="evenodd" id="svg_69" stroke="#646464" stroke-miterlimit="8" stroke-width="1.02" transform="matrix(1 0 0 1 0 0)">제주</path>
   <path d="m2032.98,894.65l-0.77,1.07l-5.1,3.43l-0.26,1.18l-1.09,2.39l0.43,1.73l2.92,0.48l0.09,1.16l-2.23,3.48l-1.14,0.97l-1.25,-0.27l-0.73,1.21l0.95,1.05l-3.01,3.25l-2.34,-0.14l-2.27,0.5l-2.99,4.04l-3.6,2.31l-1.12,-0.66l-1.68,-3.13l-0.27,-3.34l-2.28,0.81l-3.62,0.06l-5.6,3.46l-0.99,1.02l-3.4,0.18l-2.35,0.7l-2.43,-0.84l-4.42,1.4l-5.87,-10.89l-5.53,2.94l-3.03,-2.86l0.75,-4.14l-1.16,-0.97l0.33,-2.4l-1.2,-2.21l-4.79,-3.76l-1.01,-1.17l-2.53,-1.62l-0.41,-1.27l0.47,-1.18l2.09,-2.05l0.66,-1.33l-0.03,-0.73l0.01,0l0.95,-2.88l1.27,-0.12l4.19,3.85l2.48,1.1l2.37,0.92l0.73,-0.27l1.46,-0.5l2.22,-1.66l3.52,-1.87l-0.12,-3.54l-0.05,-2.52l0.37,-1.17l0.92,-5.42l2.41,-0.52l2.76,-3.02l1.36,-0.18l4.58,6.45l1.91,-3.39l-1.04,-3.03l1.77,-2.84l-0.15,-1.54l-0.08,-0.77l3.34,-2.24l0.38,-1.05l0.83,-0.65l3.84,0.41l3.68,0l4.86,-0.57l2.44,3.23l0,3.81l0.4,3.8l2.39,4.15l-0.05,1.61l2.4,3.23l-1.11,11.69l2.26,-0.43l4.59,-2.06l4.38,-2.67l3.34,6.8z" fill="#FEFEE9" fill-rule="evenodd" id="svg_70" stroke="#646464" stroke-miterlimit="8" stroke-width="1.02" transform="matrix(1 0 0 1 0 0)">제주</path>
   <path d="m1917.19,885.49l-2.28,0l-2.26,-2.85l-2.26,0l-2.28,0l-9.06,0l-4.54,0l-4.52,-5.7l6.8,-2.85l2.26,-2.85l0,-2.85l-2.26,0l-6.8,-14.25l0,-2.85l0,-11.4l0,-2.85l2.26,-2.85l4.54,-2.85l4.52,-2.85l2.28,2.85l2.26,2.85l4.54,2.85l6.8,2.85l2.26,2.85l0,5.7l0,2.85l-2.26,2.85l2.26,0l0,5.7l2.26,0l0,8.55l0,2.85l0,2.85l2.28,0l0,2.85l-2.28,0l-2.26,5.7l-2.26,2.85" fill="#FEFEE9" fill-rule="evenodd" id="svg_71" stroke="#646464" stroke-miterlimit="8" stroke-width="1.02" transform="matrix(1 0 0 1 0 0)">제주</path>
   <path d="m1886.75,860.98l2.13,2.88l2.12,2.88l0,2.87l-2.12,0l-4.25,2.88l-10.63,-11.51l0,-2.87l2.13,0l0,-5.75l2.12,-2.87l2.13,0l0,2.87l2.12,2.88l0,2.87l2.13,2.87l2.12,0" fill="#FEFEE9" fill-rule="evenodd" id="svg_72" stroke="#646464" stroke-miterlimit="8" stroke-width="1.02" transform="matrix(1 0 0 1 0 0)">제주</path>
   <path d="m1927.78,905.29l0,2.9l2.2,0l0,2.9l-2.2,0l0,2.9l-4.43,0l-2.21,0l-4.42,2.9l-2.21,2.9l-2.22,2.9l-8.84,5.8l-2.2,0l-2.21,0l0,-2.9l-2.22,-2.9l0,2.9l0,-2.9l-2.2,0l-2.21,0l-2.22,0l0,-2.9l-2.21,-2.9l0,-2.9l2.21,0l8.85,-5.8l6.62,0l4.43,0l4.42,-2.9l0,-5.8l2.21,0l2.21,2.9l2.21,0l2.21,0l2.21,2.9l2.22,0" fill="#FEFEE9" fill-rule="evenodd" id="svg_73" stroke="#646464" stroke-miterlimit="8" stroke-width="1.02" transform="matrix(1 0 0 1 0 0)">제주</path>
   <path d="m1836.3,973.89l-2.33,2.8l0,-2.8l0,-2.8l2.33,-2.8l0,-2.8l2.33,0l2.34,2.8l0,2.8l4.66,0l2.34,2.8l0,2.8l-2.34,0l-2.33,2.8l-2.33,0l-2.34,0l-2.33,-2.8l0,-2.8" fill="#FEFEE9" fill-rule="evenodd" id="svg_74" stroke="#646464" stroke-miterlimit="8" stroke-width="1.02" transform="matrix(1 0 0 1 0 0)">제주</path>
   <path d="m1911.77,962.49l2.2,0l0,2.75l0,2.75l-2.2,0l-2.2,2.75l0,2.75l-2.2,0l-2.2,0l-2.2,0l0,-2.75l0,-2.75l0,-2.75l0,-2.75l4.4,0l4.4,0" fill="#FEFEE9" fill-rule="evenodd" id="svg_75" stroke="#646464" stroke-miterlimit="8" stroke-width="1.02" transform="matrix(1 0 0 1 0 0)">제주</path>
   <path d="m1875.88,834.49l2.27,0l4.55,0l2.27,3l-2.27,6l-2.28,3l-4.54,0l-9.09,-3l-2.28,0l-2.27,3l-2.27,-3l2.27,-9l4.55,-3l2.27,0l2.27,0l4.55,3" fill="#FEFEE9" fill-rule="evenodd" id="svg_76" stroke="#646464" stroke-miterlimit="8" stroke-width="1.02" transform="matrix(1 0 0 1 0 0)">제주</path>
   <path d="m1956.17,930.99l0.63,-2.38l0.99,-0.9l1.13,-0.44l0.55,-1.28l-0.19,-1.22l-0.48,-1.01l-0.05,-1.31l1.24,-1.63l-0.25,-2.33l-0.79,-1.26l-1.08,-0.07l-2.38,-1.44l-2.54,-2.61l-0.14,-2.32l-0.76,-3.49l-0.06,-1.3l1.07,-4.12l3.57,-7.85l0.47,-1.19l2.06,-2.06l0.66,-1.34l-0.03,-0.74l-2.63,-0.53l-3.6,1.6l-0.99,-2.5l-4.15,-0.34l-3.07,-3.23l-4.14,-3.67l-6.12,-2.54l-2.53,2.41l0,4.04l-4.57,0l0,2.6l2.23,2.85l2.22,2.85l2.23,2.84l0,2.85l0,5.69l0,2.85l0,2.85l4.46,0l0,-2.85l4.46,2.85l-2.23,0l0,2.84l-6.69,0l-2.23,2.85l2.23,5.69l-2.23,2.85l4.46,2.85l2.23,0l2.23,2.85l-2.23,5.7l-2.23,2.85l4.46,5.69l4.45,-5.69l2.79,0l2.79,0l2.78,0l2,-6.81z" fill="#FEFEE9" fill-rule="evenodd" id="svg_77" stroke="#646464" stroke-miterlimit="8" stroke-width="1.02" transform="matrix(1 0 0 1 0 0)">제주</path>
   <path d="m2018.67,1472.31l1.31,3.46l-1.88,5.54l0.26,4.3l-2.74,3.58l-2.94,4.01l-3.82,1.64l-5.72,1.38l-2.81,-3.06l-4.44,2.91l-1.71,-0.67l-2.53,1.66l-2.58,-1.13l-2.94,2.73l-3.6,1.42l-4.04,1.41l-2.99,-0.91l-2.97,0.79l-1.08,-1.31l-1.91,-0.04l-0.24,-2.14l1.91,-2.11l-4.11,-6.31l-2.14,-1.33l-6.39,-0.99l-2.2,1.25l-3.1,0.14l-1.51,-1.54l-2.78,-2.42l0.16,-5.36l0.17,-4.71l2.12,-0.39l1.28,-1.9l-3.24,-4.58l4.25,-0.11l1.87,-4.9l2.57,1.56l4.44,-3.8l3.56,-6.12l4.25,-0.77l-1.02,5.13l5.55,2.69l3.63,1.15l4.02,-3.13l2.77,0.26l3.39,-2.06l2.54,-1.67l1.49,-0.62l2.97,-0.14l4.03,-1.21l2.99,1.14l4.1,6.31l0.23,2.57l2.16,2.62l-0.42,1.71l0.88,2.8l5.47,-0.86l3.48,2.13z" fill="#FEFEE9" fill-rule="evenodd" id="svg_81" stroke="#646464" stroke-miterlimit="8" stroke-width="1.02" transform="matrix(1 0 0 1 0 0)">제주</path>
   <path d="m2059.45,1173.83l1.75,0.74l0.73,-0.31l1.97,-0.2l-0.03,0.02l0.22,-0.29l0.31,-0.41l0.46,-0.29l0.28,-0.75l0.7,0.29l0.67,-0.73l1.94,0.4l0.78,0.62l0.68,-0.65l1.26,0.12l1.99,-1.54l0.42,-0.94l0.09,-1.16l0.5,-0.93l0.24,-1l1.02,-0.86l0.97,-0.69l0.13,-0.72l0.23,-0.76l-0.21,-1.49l0.3,-0.63l0.28,-0.86l0.24,-1.02l0.23,-0.76l-0.7,-0.39l0.27,-0.73l3.51,0.1l0,-2.84l2.29,0l0,-2.85l0,-2.84l-2.29,-2.85l2.29,0l0,-2.83l0,-2.86l-2,0l-1.25,-0.44l-0.29,-1.57l-0.71,-0.63l0.39,-1.39l0,0l-1.36,0.23l-1.35,1.15l-1.39,-0.01l-1.01,-0.05l-1.68,-0.03l-1.07,-1.24l-0.25,-1.12l-1.31,-1.11l-1.05,-1.13l-0.64,-1l-3.37,-0.13l0.19,-1.48l0.18,-1.54l0.11,-1.43l-0.92,-1.39l-0.23,-2.18l-1.19,-1.15l-0.5,-1l-0.2,-1.18l-0.32,-1.77l-1.19,0.64l-1.31,-0.89l-0.07,-1.44l1.66,-1.96l0.93,-2.19l1.61,-1.02l1.16,-1.67l0.11,-3.33l-1.4,-0.87l-1.69,-0.44l-1.31,-0.76l-0.77,-0.06l-0.57,-0.16l-0.51,-0.48l-1.28,0.07l-1.57,0.31l-1.08,-0.47l-0.78,-0.63l-0.63,0.34l-0.78,-1.26l-0.41,-0.48l-0.71,-0.73l-1.23,-0.89l-1.27,-0.2l-0.43,-0.73l-0.42,-0.81l-1.09,-0.19l-0.47,-0.86l-1.06,0.1l-0.94,-1.07l-0.6,-1.08l-1.41,-0.45l-0.77,0.15l-0.82,-0.29l-0.69,-0.13l-0.99,0.31l-1,-0.85l-1.01,-0.39l-2.12,0.18l0,0l-1.15,1.51l-0.71,2.17l-1.92,1.23l-1.09,0.89l0.07,0.96l1.21,0.66l0.49,0.92l0.56,1.44l0.28,1.3l0.52,0.11l0.76,-0.15l0.74,-0.23l1.22,-0.6l0.22,0.99l0.45,1.11l0.15,1.09l-0.11,1.4l-0.95,1.43l-0.08,1.78l0.76,1.52l-1.06,1.13l-0.29,1.09l0.2,1.37l0.52,1.01l0.25,0.84l0.04,0.64l-0.18,1.51l0.56,0.61l-0.74,0.31l-0.65,0.47l-0.1,0.99l0.84,0.9l0.67,2.3l1.89,1.18l1.17,1.29l1.08,-0.1l0.9,1.23l0.85,-0.76l0.31,1.7l0.69,1.68l1.16,-0.25l1.47,0.5l0.33,0.57l-0.67,0.89l-0.18,0.63l-0.6,1.47l-0.87,0.12l-0.7,0.74l-0.39,1.67l-0.36,0.6l-0.15,0.71l0.62,1.05l-0.59,0.33l-0.61,0.21l-0.87,-0.21l-0.94,1.1l-0.17,0.99l0.03,0.95l1.1,1.82l0.36,1.37l-1.46,1.73l0.01,1.17l1.03,1l-0.05,0.68l-0.3,1.62l1.24,0.48l1.31,0.05l1.52,1.34l-0.46,1.31l-0.05,1.86l1.44,1.95l1.18,1.04l-0.39,1.85l-0.3,1.03l0.28,1.12l-0.1,1.1l0.9,1.19l2.84,0.9l1.3,1.49l0.37,1.04l0.74,-0.09l0.69,0.76l1.51,0.16l0.32,0.81l0.91,0.87l0.94,1.18l0.63,-0.36l0.71,-0.52l0.02,-1.13l1.49,-0.65z" fill="#FEFEE9" fill-rule="evenodd" id="svg_82" stroke="#646464" stroke-miterlimit="8" stroke-width="1.02" transform="matrix(1 0 0 1 0 0)">제주</path>
   <path d="m2459.61,1439.49l-2.12,-2.53l-0.6,-5.55l-2.14,-3.46l-4.37,0.26l-5.18,1.16l-2.83,-1.34l2.71,-6.2l-2.08,-2.36l-0.21,-2.19l-1.4,-1.4l-2.74,1.49l-5.09,-1.55l-5.2,-4.36l-4.05,-7.81l-6.27,-2.33l-2.86,-2.36l-1.62,0.59l-9.18,-2.7l-0.04,-3.9l-2.27,0.04l-1.09,-3.9l3.88,-1.82l2.9,-2.61l-3.15,-7.62l0,0l4.58,-5.68l4.58,-2.84l4.59,0l0,-2.83l-2.3,-2.84l0,-2.84l6.88,-5.68l6.88,-2.84l6.86,0l6.88,0l6.87,2.84l2.3,2.84l0,5.68l0,2.84l2.29,0l4.59,2.83l18.32,-2.83l16.05,2.83l0,2.84l0,5.68l0,5.68l-2.3,8.52l-2.28,5.67l-2.3,2.84l-2.3,2.84l-2.28,-5.68l0,-5.67l-2.3,-2.85l-4.58,0l0,2.85l2.29,0l0,2.83l2.29,2.84l0,2.84l0,5.67l-2.29,0l-2.29,0l-2.29,0l0,2.85l0,5.67l2.29,2.85l-2.29,2.83l-2.29,2.84l2.29,2.84l0,2.84l0,2.83l-4.58,0l-2.3,2.85l-6.86,5.67z" fill="#FEFEE9" fill-rule="evenodd" id="svg_83" stroke="#646464" stroke-miterlimit="8" stroke-width="1.02" transform="matrix(1 0 0 1 0 0)"/>
   <path d="m2395.61,1484.84l0,2.8l-2.27,5.62l0,5.62l2.27,5.61l2.27,0l2.26,0l2.26,0l0,-2.81l0,-2.8l2.26,2.8l2.27,0l2.26,-5.61l2.26,-2.81l4.53,-5.62l2.26,2.81l4.53,2.81l4.52,0l0,-5.62l0,-2.8l0,-5.63l2.27,0l2.27,0l4.52,0l2.26,0l2.26,0l2.27,-2.8l0,-2.81l4.53,-5.61l2.26,-5.62l2.26,-5.61l0,-5.63l2.26,-2.8l0,-5.61l0,-2.82l4.53,0l0,0l-2.09,-2.5l-0.6,-5.49l-2.09,-3.42l-4.33,0.24l-5.11,1.16l-2.8,-1.32l-0.01,0.01l-3.55,6.93l-2.05,0.66l-5.61,-2.54l-1.91,1.67l0.69,1.91l-1.15,4.26l-2.96,2.84l-0.02,3.01l-4.82,0.97l-2.56,2.69l-2.6,-0.97l-3.86,4.55l-4.92,0.71l-0.28,2.04l-3.14,7.19l-3.32,1.29l-4.73,1.11l-2.22,-0.57l-2.95,2.5l-3.65,-0.74l-3.12,1.49l-3.38,2.91l1.69,4.05l-0.4,4.68l-1.91,1.22l-1.73,-2.16l-2.47,0.86l-2.68,2.01l-3.5,-0.67l-2.86,0.25l0.34,2.01l2.51,3.44l3.82,1.14l0.96,3.91l-3.17,1.17l-0.29,1.67l5.09,0l4.53,0l2.27,-5.62l2.26,-2.81l0,2.81l0,5.62l2.26,0l6.78,-11.23l2.27,-2.81l0,2.81" fill="#FEFEE9" fill-rule="evenodd" id="svg_84" stroke="#646464" stroke-miterlimit="8" stroke-width="1.02" transform="matrix(1 0 0 1 0 0)"/>
   <path d="m2372.03,1509.99l0,5.67l-2,2.83l-2,-2.83l0,-2.83l-2,-2.84l0,-2.83l-2,-2.83l2,-2.84l2,0l2,0l2,2.84l0,5.66" fill="#FEFEE9" fill-rule="evenodd" id="svg_85" stroke="#646464" stroke-miterlimit="8" stroke-width="1.02" transform="matrix(1 0 0 1 0 0)"/>
   <path d="m2277.48,635.99l-4.55,2.93l-1.44,1.29l-4.17,3.3l0,8.1l0.82,6.46l0.15,5.2l-1.8,6.18l0.31,1.97l-0.49,0.71l-3.06,6.77l-0.9,1.94l-7.79,7.57l-3.66,2.37l-2.03,3.07l-1.16,1.69l-3.11,1.64l-4.36,2.97l-2.49,2.92l-2.24,1.48l-2.8,2.46l-4.24,-0.65l-1.23,0.45l-3.93,3.82l-2.23,1.19l-6.15,0.97l-1.52,-0.19l-2.75,-1.24l-2.2,-0.34l-2.58,0.17l-4.33,-1.32l-3.7,0.91l-1.98,-0.32l-1.55,-0.9l-8.57,-2.46l-1.9,0.53l-1.74,3.08l-1.68,0.95l-3.74,0.39l-3.62,1.99l-0.8,-0.09l-1.61,-2.05l-3.23,-2.95l-1.5,-3.67l-1.28,-0.73l-1.57,0.38l-3.69,2.49l-7.69,-0.26l-1.73,0.31l-2.6,-0.61l-1.79,1.49l-3.62,0.89l-4.17,-1.03l-7.85,0.86l-2.42,-2.29l-2.99,-0.63l-1.47,0.39l-11.38,5.68l-4.22,2.65l-4.62,-2.89l-4.6,-1.7l-2.31,0.65l-3.55,-2.51l-6.2,-1.87l-2.13,0.42l-3.04,1.79l-5.19,0.32l-2.36,1.93l-3.52,-0.58l-3.11,0.85l-3.33,-2.44l-3.46,-0.36l-3.63,-0.7l-1.16,0.53l-5.02,3.14l-7.68,2.64l-2.38,-0.2l-3.21,-1.13l-7.7,4.85l-1.74,2.25l-3.07,1.35l-3.55,3.32l-2.48,1.26l-1.13,1.01l-4.38,3.2l-0.93,2.38l-5.64,6.34l-1.9,3.75l-0.91,5.38l1.97,3.82l-0.35,0.89l-5.57,2.85l-3.74,3.26l-5.02,3.39l-2.1,2.13l-1.35,2.22l-1,3.25l-1.08,5.03l-0.69,1.45l-1.51,2.53l-2.37,2.73l-6.34,6.1l-2.55,3.02l-2.12,3.22l-0.8,0.68l-1.37,0.26l-3.13,-0.31l-2.52,0.3l-3.58,1.62l-3.19,1.11l-1.86,-0.61l-2.08,0.31l-0.56,1.68l2.4,8.11l-0.98,3.13l0.2,5.63l-0.35,3.7l-2.41,6.64" fill="none" fill-rule="evenodd" id="svg_86" stroke="#646464" stroke-linejoin="round" stroke-miterlimit="10" stroke-width="3.84" transform="matrix(1 0 0 1 0 0)">제주</path>
  </g>
 </g>
</svg>